<svg width="32" height="32" viewBox="0 0 32 32" fill="none" xmlns="http://www.w3.org/2000/svg">
<path d="M8.63603 5.54501C8.63486 5.27584 8.86219 5.0253 9.13024 5L15.1815 5.00046C15.467 5.00046 15.7268 5.26011 15.7268 5.54547V7.18053H22.6043C22.8598 5.94169 23.9595 5.00022 25.2718 5.00022C26.7714 5.00022 27.9988 6.22688 27.9988 7.72554C27.9988 9.22419 26.7714 10.4509 25.2718 10.4509C23.9567 10.4509 22.8566 9.51337 22.6043 8.27054H15.7268V9.3606C15.7268 9.64594 15.467 9.90561 15.1815 9.90561H9.18158C8.89604 9.90561 8.63618 9.64596 8.63618 9.3606V8.27054H6.72718C5.846 8.27054 5.09095 9.15455 5.09095 9.90561V14.5386C5.09095 15.1221 5.12271 15.5501 5.2614 15.7565C5.4001 15.9631 5.70696 16.1739 6.72718 16.1739H7.20448L6.58243 15.4329C6.45098 15.2842 6.41084 15.0604 6.48256 14.8753C6.55428 14.6901 6.73443 14.5518 6.9319 14.5301C7.11414 14.5107 7.304 14.5906 7.41757 14.7344L8.78118 16.3694C8.94307 16.5635 8.94307 16.8738 8.78118 17.0678L7.41757 18.7029C7.24123 18.941 6.85639 18.9871 6.62887 18.7968C6.40154 18.6068 6.3789 18.22 6.58245 18.0045L7.2045 17.2635H6.7272C5.53862 17.2635 4.75714 16.955 4.35803 16.3609C3.95872 15.7668 4 15.1129 4 14.5384V9.90539C4 8.50009 5.184 7.18007 6.72702 7.18007H8.63603V5.54501Z" fill="#212121"/>
<path d="M10.272 16.7189C10.272 15.2203 11.4994 13.9936 12.999 13.9936C14.3112 13.9936 15.411 14.9351 15.6664 16.1739H22.6033C22.8588 14.9351 23.9586 13.9936 25.2708 13.9936C26.7704 13.9936 27.9978 15.2203 27.9978 16.7189C27.9978 18.0303 27.0557 19.1378 25.8162 19.3931V19.9893C25.8202 20.2773 25.559 20.5421 25.2708 20.5421C24.9826 20.5421 24.7214 20.2773 24.7254 19.9893V19.3931C23.6601 19.1737 22.8196 18.3297 22.6033 17.264H15.6664C15.4142 18.5068 14.3141 19.4443 12.999 19.4443C11.4994 19.4443 10.272 18.2176 10.272 16.7189Z" fill="#212121"/>
<path d="M24.7256 22.1694C24.7197 21.9001 24.9432 21.6453 25.2112 21.6159C25.5189 21.582 25.8227 21.8601 25.816 22.1692V22.9868C25.816 23.5511 25.8839 24.2055 25.4922 24.8093C25.1005 25.4131 24.3143 25.712 23.089 25.712H19.3392L19.9613 26.4529C20.165 26.6683 20.1424 27.0551 19.9149 27.2453C19.6873 27.4355 19.3025 27.3897 19.1262 27.1513L17.7625 25.5163C17.6007 25.3222 17.6007 25.0119 17.7625 24.8179L19.1262 23.1828C19.2131 23.0721 19.3445 22.997 19.4842 22.9785C19.7029 22.9506 19.9331 23.0698 20.0361 23.2646C20.139 23.4594 20.108 23.7166 19.9615 23.8814L19.3394 24.6223H23.0892C24.1526 24.6223 24.4535 24.4093 24.5806 24.2135C24.7077 24.0176 24.7256 23.5846 24.7256 22.9871V22.1694Z" fill="#212121"/>
<path d="M9.45387 22.9871C9.4527 22.7179 9.68004 22.4674 9.94808 22.4421L15.9991 22.442C16.2846 22.442 16.5445 22.7017 16.5445 22.987V26.8024C16.5445 27.0877 16.2846 27.3474 15.9991 27.3474H9.99921C9.71103 27.3516 9.44603 27.0904 9.44603 26.8024L9.45387 22.9871Z" fill="#212121"/>
</svg>
