<svg width="18" height="18" viewBox="0 0 18 18" fill="none" xmlns="http://www.w3.org/2000/svg">
<path d="M3.84859 0.75C3.64755 0.768976 3.47705 0.956883 3.47793 1.15875V2.38505H2.04618C0.88891 2.38505 0.000908912 3.37507 0.000908912 4.42904V7.90379C0.000908912 8.33468 -0.030052 8.82507 0.269428 9.27064C0.568763 9.71621 1.15487 9.94764 2.04631 9.94764H2.40428L1.93775 10.5034C1.78508 10.665 1.80206 10.9551 1.97256 11.0976C2.1432 11.2403 2.43183 11.2058 2.56409 11.0272L3.58679 9.80085C3.70821 9.65532 3.70821 9.42263 3.58679 9.27708L2.56409 8.05078C2.47891 7.94292 2.33651 7.88299 2.19983 7.89755C2.05173 7.91381 1.91662 8.01754 1.86283 8.1565C1.80904 8.29533 1.83914 8.46312 1.93773 8.57468L2.40427 9.13041H2.04629C1.28113 9.13041 1.05098 8.97233 0.946957 8.81738C0.842944 8.66258 0.819118 8.34157 0.819118 7.90396V4.4292C0.819118 3.86591 1.38541 3.20291 2.04629 3.20291H3.47805V4.02045C3.47805 4.23447 3.67294 4.4292 3.88709 4.4292H8.387C8.60116 4.4292 8.79605 4.23445 8.79605 4.02045V3.20291H13.9541C14.1433 4.13503 14.9684 4.83814 15.9547 4.83814C17.0795 4.83814 18 3.91814 18 2.79415C18 1.67016 17.0795 0.750164 15.9547 0.750164C14.9706 0.750164 14.1457 1.45627 13.9541 2.3854H8.79605V1.1591C8.79605 0.945085 8.60115 0.750347 8.387 0.750347H3.84911L3.84859 0.75ZM4.29602 1.56754H7.97776V3.61153H4.29602V1.56754ZM15.9541 1.56754C16.6367 1.56754 17.1813 2.1117 17.1813 2.79384C17.1813 3.47599 16.6367 4.02014 15.9541 4.02014C15.2716 4.02014 14.727 3.47599 14.727 2.79384C14.727 2.1117 15.2716 1.56754 15.9541 1.56754ZM6.75015 7.49522C5.62543 7.49522 4.70488 8.41522 4.70488 9.53921C4.70488 10.6632 5.62543 11.5832 6.75015 11.5832C7.73648 11.5832 8.56158 10.8801 8.75075 9.94796H13.9534C14.1156 10.7472 14.746 11.3803 15.5449 11.5448V11.992C15.542 12.208 15.7378 12.4066 15.954 12.4066C16.1702 12.4066 16.366 12.208 16.363 11.992V11.5448C17.2927 11.3533 17.9993 10.5227 17.9993 9.53921C17.9993 8.41522 17.0787 7.49522 15.954 7.49522C14.9698 7.49522 14.145 8.20133 13.9534 9.13046H8.75075C8.55913 8.20133 7.73432 7.49522 6.75015 7.49522ZM6.75015 8.31277C7.43273 8.31277 7.97732 8.85692 7.97732 9.53906C7.97732 10.2212 7.43273 10.7654 6.75015 10.7654C6.06757 10.7654 5.52298 10.2212 5.52298 9.53906C5.52298 8.85692 6.06757 8.31277 6.75015 8.31277ZM15.9541 8.31277C16.6367 8.31277 17.1813 8.85692 17.1813 9.53906C17.1813 10.2212 16.6367 10.7654 15.9541 10.7654C15.2716 10.7654 14.727 10.2212 14.727 9.53906C14.727 8.85692 15.2716 8.31277 15.9541 8.31277ZM15.9093 13.2119C15.7083 13.234 15.5407 13.4251 15.5451 13.6271V14.2403C15.5451 14.6885 15.5317 15.0132 15.4364 15.1602C15.3411 15.307 15.1153 15.4668 14.3178 15.4668H11.5055L11.972 14.911C12.0819 14.7875 12.1051 14.5946 12.0279 14.4485C11.9508 14.3024 11.7781 14.2129 11.614 14.2339C11.5093 14.2477 11.4107 14.3041 11.3455 14.3871L10.3228 15.6134C10.2014 15.759 10.2014 15.9916 10.3228 16.1372L11.3455 17.3635C11.4778 17.5423 11.7664 17.5766 11.937 17.434C12.1077 17.2913 12.1247 17.0012 11.9719 16.8397L11.5053 16.284H14.3176C15.2366 16.284 15.8263 16.0598 16.1201 15.607C16.4138 15.1541 16.3629 14.6633 16.3629 14.2401V13.6269C16.3679 13.3951 16.1398 13.1863 15.909 13.2117L15.9093 13.2119ZM4.46197 13.8315C4.26094 13.8505 4.09043 14.0384 4.09131 14.2403V15.4666C4.08831 15.6826 4.28421 15.8812 4.50036 15.8812C4.71651 15.8812 4.9124 15.6826 4.9094 15.4666V14.6491H8.59115V16.693H4.50032C4.28416 16.6899 4.08543 16.8858 4.08543 17.1018C4.08543 17.3178 4.28418 17.5137 4.50032 17.5105H9.00023C9.21439 17.5105 9.40927 17.3158 9.40927 17.1018V14.2403C9.40927 14.0262 9.21438 13.8315 9.00023 13.8315H4.46233L4.46197 13.8315Z" fill="white"/>
</svg>
