<svg width="24" height="23" viewBox="0 0 24 23" fill="none" xmlns="http://www.w3.org/2000/svg">
<path d="M5.13145 0C4.86341 0.0253013 4.63607 0.275843 4.63724 0.545005V2.18007H2.72823C1.18521 2.18007 0.00121188 3.50009 0.00121188 4.90539V9.53839C0.00121188 10.1129 -0.0400694 10.7668 0.359237 11.3609C0.758351 11.9549 1.53983 12.2635 2.72841 12.2635H3.20571L2.58366 13.0045C2.38011 13.22 2.40275 13.6068 2.63008 13.7968C2.8576 13.9871 3.24244 13.941 3.41878 13.7029L4.78239 12.0678C4.94428 11.8738 4.94428 11.5635 4.78239 11.3694L3.41878 9.73438C3.30521 9.59056 3.11535 9.51066 2.93311 9.53006C2.73564 9.55175 2.55549 9.69005 2.48377 9.87534C2.41205 10.0604 2.45219 10.2842 2.58364 10.4329L3.20569 11.1739H2.72839C1.70817 11.1739 1.40131 10.9631 1.26261 10.7565C1.12393 10.5501 1.09216 10.1221 1.09216 9.53861V4.90561C1.09216 4.15455 1.84721 3.27054 2.72839 3.27054H4.63739V4.3606C4.63739 4.64596 4.89725 4.90561 5.18279 4.90561H11.1827C11.4682 4.90561 11.7281 4.64594 11.7281 4.3606V3.27054H18.6055C18.8578 4.51337 19.9579 5.45085 21.273 5.45085C22.7726 5.45085 24 4.22419 24 2.72554C24 1.22688 22.7726 0.000219217 21.273 0.000219217C19.9608 0.000219217 18.861 0.941693 18.6055 2.18053H11.7281V0.545468C11.7281 0.260113 11.4682 0.00046277 11.1827 0.00046277H5.13214L5.13145 0ZM5.72803 1.09006H10.637V3.81538H5.72803V1.09006ZM21.2722 1.09006C22.1823 1.09006 22.9084 1.8156 22.9084 2.72512C22.9084 3.63465 22.1823 4.36019 21.2722 4.36019C20.3621 4.36019 19.636 3.63465 19.636 2.72512C19.636 1.8156 20.3621 1.09006 21.2722 1.09006V1.09006ZM9.0002 8.99363C7.50057 8.99363 6.27318 10.2203 6.27318 11.7189C6.27318 13.2176 7.50057 14.4443 9.0002 14.4443C10.3153 14.4443 11.4154 13.5068 11.6677 12.264H18.6045C18.8208 13.3297 19.6613 14.1737 20.7266 14.3931V14.9893C20.7226 15.2773 20.9838 15.5421 21.272 15.5421C21.5602 15.5421 21.8214 15.2773 21.8174 14.9893V14.3931C23.057 14.1378 23.999 13.0303 23.999 11.7189C23.999 10.2203 22.7716 8.99363 21.272 8.99363C19.9598 8.99363 18.86 9.9351 18.6045 11.1739H11.6677C11.4122 9.9351 10.3124 8.99363 9.0002 8.99363V8.99363ZM9.0002 10.0837C9.91031 10.0837 10.6364 10.8092 10.6364 11.7188C10.6364 12.6283 9.91031 13.3538 9.0002 13.3538C8.09009 13.3538 7.36397 12.6283 7.36397 11.7188C7.36397 10.8092 8.09009 10.0837 9.0002 10.0837V10.0837ZM21.2722 10.0837C22.1823 10.0837 22.9084 10.8092 22.9084 11.7188C22.9084 12.6283 22.1823 13.3538 21.2722 13.3538C20.3621 13.3538 19.636 12.6283 19.636 11.7188C19.636 10.8092 20.3621 10.0837 21.2722 10.0837V10.0837ZM21.2125 16.6159C20.9444 16.6453 20.7209 16.9001 20.7268 17.1694V17.9871C20.7268 18.5846 20.7089 19.0176 20.5818 19.2135C20.4547 19.4093 20.1538 19.6223 19.0904 19.6223H15.3406L15.9627 18.8814C16.1092 18.7166 16.1402 18.4594 16.0373 18.2646C15.9343 18.0698 15.7042 17.9506 15.4854 17.9785C15.3458 17.997 15.2143 18.0721 15.1274 18.1828L13.7638 19.8179C13.6019 20.0119 13.6019 20.3222 13.7638 20.5163L15.1274 22.1513C15.3037 22.3897 15.6885 22.4355 15.9161 22.2453C16.1436 22.0551 16.1662 21.6683 15.9625 21.4529L15.3404 20.712H19.0902C20.3155 20.712 21.1017 20.4131 21.4934 19.8093C21.8851 19.2055 21.8172 18.5511 21.8172 17.9868V17.1692C21.8239 16.8601 21.5197 16.5818 21.2121 16.6156L21.2125 16.6159ZM5.94929 17.4421C5.68125 17.4674 5.45391 17.7179 5.45508 17.9871V19.6221C5.45109 19.9101 5.71228 20.175 6.00048 20.175C6.28867 20.175 6.54986 19.9102 6.54587 19.6221V18.5321H11.4549V21.2574H6.00043C5.71222 21.2532 5.44724 21.5144 5.44724 21.8024C5.44724 22.0904 5.71224 22.3516 6.00043 22.3474H12.0003C12.2858 22.3474 12.5457 22.0877 12.5457 21.8024V17.987C12.5457 17.7017 12.2858 17.442 12.0003 17.442H5.94978L5.94929 17.4421Z" fill="#212121"/>
</svg>
