<svg width="14" height="14" viewBox="0 0 14 14" fill="none" xmlns="http://www.w3.org/2000/svg">
<path d="M2.19999 5.20001H7.59999C8.26273 5.20001 8.79999 5.73727 8.79999 6.40001V11.8C8.79999 12.4628 8.26273 13 7.59999 13H2.19999C1.53725 13 0.999988 12.4628 0.999988 11.8V6.40001C0.999988 5.73727 1.53725 5.20001 2.19999 5.20001Z" stroke="#724CF9" stroke-linecap="round" stroke-linejoin="round"/>
<path d="M11.2 8.8H11.8C12.1183 8.8 12.4235 8.67357 12.6485 8.44853C12.8736 8.22348 13 7.91826 13 7.6V2.2C13 1.88174 12.8736 1.57652 12.6485 1.35147C12.4235 1.12643 12.1183 1 11.8 1H6.4C6.08174 1 5.77652 1.12643 5.55147 1.35147C5.32643 1.57652 5.2 1.88174 5.2 2.2V2.8" stroke="#724CF9" stroke-linecap="round" stroke-linejoin="round"/>
</svg>
