<svg width="72" height="124" viewBox="0 0 72 124" fill="none" xmlns="http://www.w3.org/2000/svg">
<path d="M34.7349 26.5302H26.3855C25.7528 26.5302 25.1461 26.7816 24.6987 27.2289C24.2513 27.6763 24 28.2831 24 28.9158V45.6145C24 46.2472 24.2513 46.8539 24.6987 47.3013C25.1461 47.7487 25.7528 48 26.3855 48H43.0842C43.7169 48 44.3237 47.7487 44.7711 47.3013C45.2184 46.8539 45.4698 46.2472 45.4698 45.6145V37.2651" stroke="#212121" stroke-linecap="round" stroke-linejoin="round"/>
<path d="M43.6806 24.7411C44.1552 24.2666 44.7987 24 45.4698 24C46.1409 24 46.7844 24.2666 47.2589 24.7411C47.7335 25.2156 48 25.8592 48 26.5302C48 27.2013 47.7335 27.8449 47.2589 28.3194L35.9277 39.6506L31.1566 40.8434L32.3494 36.0724L43.6806 24.7411Z" stroke="#212121" stroke-linecap="round" stroke-linejoin="round"/>
<rect x="0.5" y="0.5" width="71" height="123" rx="4.5" stroke="#9747FF" stroke-dasharray="10 5"/>
</svg>
