<svg width="16" height="16" viewBox="0 0 16 16" fill="none" xmlns="http://www.w3.org/2000/svg">
<path d="M8 2C6.81331 2 5.65328 2.35189 4.66658 3.01118C3.67989 3.67047 2.91085 4.60754 2.45673 5.7039C2.0026 6.80025 1.88378 8.00666 2.11529 9.17054C2.3468 10.3344 2.91825 11.4035 3.75736 12.2426C4.59648 13.0818 5.66557 13.6532 6.82946 13.8847C7.99335 14.1162 9.19975 13.9974 10.2961 13.5433C11.3925 13.0891 12.3295 12.3201 12.9888 11.3334C13.6481 10.3467 14 9.18669 14 8C13.997 6.40964 13.3638 4.88529 12.2393 3.76073C11.1147 2.63617 9.59036 2.00305 8 2ZM10.175 9.51731C10.2617 9.60481 10.3103 9.72299 10.3103 9.84615C10.3103 9.96931 10.2617 10.0875 10.175 10.175C10.0868 10.2603 9.96887 10.308 9.84616 10.308C9.72344 10.308 9.60553 10.2603 9.51731 10.175L8 8.65192L6.48269 10.175C6.39448 10.2603 6.27656 10.308 6.15385 10.308C6.03113 10.308 5.91322 10.2603 5.825 10.175C5.73833 10.0875 5.68971 9.96931 5.68971 9.84615C5.68971 9.72299 5.73833 9.60481 5.825 9.51731L7.34808 8L5.825 6.48269C5.7514 6.39302 5.71379 6.27917 5.71948 6.1633C5.72517 6.04743 5.77376 5.93782 5.85579 5.85579C5.93782 5.77376 6.04743 5.72517 6.1633 5.71948C6.27917 5.71379 6.39302 5.7514 6.48269 5.825L8 7.34808L9.51731 5.825C9.60698 5.7514 9.72083 5.71379 9.8367 5.71948C9.95257 5.72517 10.0622 5.77376 10.1442 5.85579C10.2262 5.93782 10.2748 6.04743 10.2805 6.1633C10.2862 6.27917 10.2486 6.39302 10.175 6.48269L8.65192 8L10.175 9.51731Z" fill="#F04438"/>
</svg>
