<svg width="20" height="17" viewBox="0 0 20 17" fill="none" xmlns="http://www.w3.org/2000/svg">
<path d="M17.2 4.25H2.8C1.80589 4.25 1 5.0335 1 6V14.75C1 15.7165 1.80589 16.5 2.8 16.5H17.2C18.1941 16.5 19 15.7165 19 14.75V6C19 5.0335 18.1941 4.25 17.2 4.25Z" stroke="white" stroke-linecap="round" stroke-linejoin="round"/>
<path d="M13.6 16.5V2.5C13.6 2.03587 13.4104 1.59075 13.0728 1.26256C12.7353 0.934374 12.2774 0.75 11.8 0.75H8.20002C7.72263 0.75 7.2648 0.934374 6.92723 1.26256C6.58967 1.59075 6.40002 2.03587 6.40002 2.5V16.5" stroke="white" stroke-linecap="round" stroke-linejoin="round"/>
</svg>
