<svg width="72" height="124" viewBox="0 0 72 124" fill="none" xmlns="http://www.w3.org/2000/svg">
<path d="M36 48C42.6274 48 48 42.6274 48 36C48 29.3726 42.6274 24 36 24C29.3726 24 24 29.3726 24 36C24 42.6274 29.3726 48 36 48Z" stroke="#212121" stroke-linecap="round" stroke-linejoin="round"/>
<path d="M35.9999 43.2C39.9764 43.2 43.1999 39.9765 43.1999 36C43.1999 32.0236 39.9764 28.8 35.9999 28.8C32.0235 28.8 28.7999 32.0236 28.7999 36C28.7999 39.9765 32.0235 43.2 35.9999 43.2Z" stroke="#212121" stroke-linecap="round" stroke-linejoin="round"/>
<path d="M36 38.4C37.3255 38.4 38.4 37.3255 38.4 36C38.4 34.6745 37.3255 33.6 36 33.6C34.6745 33.6 33.6 34.6745 33.6 36C33.6 37.3255 34.6745 38.4 36 38.4Z" stroke="#212121" stroke-linecap="round" stroke-linejoin="round"/>
<rect x="0.5" y="0.5" width="71" height="123" rx="4.5" stroke="#9747FF" stroke-dasharray="10 5"/>
</svg>
