<svg width="16" height="16" viewBox="0 0 16 16" fill="none" xmlns="http://www.w3.org/2000/svg">
<path d="M8 2C6.81331 2 5.65328 2.35189 4.66658 3.01118C3.67989 3.67047 2.91085 4.60754 2.45673 5.7039C2.0026 6.80025 1.88378 8.00666 2.11529 9.17054C2.3468 10.3344 2.91825 11.4035 3.75736 12.2426C4.59648 13.0818 5.66557 13.6532 6.82946 13.8847C7.99335 14.1162 9.19975 13.9974 10.2961 13.5433C11.3925 13.0891 12.3295 12.3201 12.9888 11.3334C13.6481 10.3467 14 9.18669 14 8C13.997 6.40964 13.3638 4.88529 12.2393 3.76073C11.1147 2.63617 9.59036 2.00305 8 2ZM7.88462 4.76923C8.02154 4.76923 8.15539 4.80983 8.26924 4.88591C8.38309 4.96198 8.47183 5.0701 8.52423 5.1966C8.57662 5.32311 8.59033 5.46231 8.56362 5.5966C8.53691 5.7309 8.47097 5.85425 8.37415 5.95107C8.27733 6.04789 8.15397 6.11383 8.01968 6.14054C7.88538 6.16726 7.74618 6.15355 7.61968 6.10115C7.49318 6.04875 7.38506 5.96001 7.30898 5.84616C7.23291 5.73231 7.19231 5.59846 7.19231 5.46154C7.19231 5.27793 7.26525 5.10184 7.39508 4.972C7.52491 4.84217 7.70101 4.76923 7.88462 4.76923ZM8.46154 11.2308H8C7.87759 11.2308 7.7602 11.1821 7.67364 11.0956C7.58709 11.009 7.53846 10.8916 7.53846 10.7692V8C7.41606 8 7.29866 7.95137 7.21211 7.86482C7.12555 7.77826 7.07692 7.66087 7.07692 7.53846C7.07692 7.41605 7.12555 7.29866 7.21211 7.2121C7.29866 7.12555 7.41606 7.07692 7.53846 7.07692H8C8.12241 7.07692 8.2398 7.12555 8.32636 7.2121C8.41291 7.29866 8.46154 7.41605 8.46154 7.53846V10.3077C8.58395 10.3077 8.70134 10.3563 8.7879 10.4429C8.87445 10.5294 8.92308 10.6468 8.92308 10.7692C8.92308 10.8916 8.87445 11.009 8.7879 11.0956C8.70134 11.1821 8.58395 11.2308 8.46154 11.2308Z" fill="#27ACDD"/>
</svg>
