<svg width="10" height="14" viewBox="0 0 10 14" fill="none" xmlns="http://www.w3.org/2000/svg">
<path d="M5.32812 1C4.87346 1 4.43742 1.1724 4.11593 1.47928C3.79444 1.78616 3.61383 2.20237 3.61383 2.63636V7C3.61383 7.43399 3.79444 7.85021 4.11593 8.15708C4.43742 8.46396 4.87346 8.63636 5.32812 8.63636C5.78277 8.63636 6.21881 8.46396 6.5403 8.15708C6.86179 7.85021 7.0424 7.43399 7.0424 7V2.63636C7.0424 2.20237 6.86179 1.78616 6.5403 1.47928C6.21881 1.1724 5.78277 1 5.32812 1V1Z" stroke="#212121" stroke-linecap="round" stroke-linejoin="round"/>
<path d="M9.32813 5.90912V7.00003C9.32813 8.01267 8.9067 8.98384 8.15655 9.69989C7.40641 10.4159 6.38899 10.8182 5.32813 10.8182C4.26726 10.8182 3.24984 10.4159 2.4997 9.69989C1.74955 8.98384 1.32813 8.01267 1.32812 7.00003V5.90912" stroke="#212121" stroke-linecap="round" stroke-linejoin="round"/>
<path d="M5.32812 10.8182V13" stroke="#212121" stroke-linecap="round" stroke-linejoin="round"/>
<path d="M3.04242 13H7.61385" stroke="#212121" stroke-linecap="round" stroke-linejoin="round"/>
</svg>
