<svg width="16" height="16" viewBox="0 0 16 16" fill="none" xmlns="http://www.w3.org/2000/svg">
<path d="M9 2H4.2C3.88174 2 3.57652 2.12643 3.35147 2.35147C3.12643 2.57652 3 2.88174 3 3.2V12.8C3 13.1183 3.12643 13.4235 3.35147 13.6485C3.57652 13.8736 3.88174 14 4.2 14H11.4C11.7183 14 12.0235 13.8736 12.2485 13.6485C12.4736 13.4235 12.6 13.1183 12.6 12.8V5.6L9 2Z" stroke="white" stroke-linecap="round" stroke-linejoin="round"/>
<path d="M9 2V5.6H12.6" stroke="white" stroke-linecap="round" stroke-linejoin="round"/>
<path d="M10.2 8.59998H5.39999" stroke="white" stroke-linecap="round" stroke-linejoin="round"/>
<path d="M10.2 11H5.39999" stroke="white" stroke-linecap="round" stroke-linejoin="round"/>
<path d="M6.59999 6.20001H5.99999H5.39999" stroke="white" stroke-linecap="round" stroke-linejoin="round"/>
</svg>
