<svg width="72" height="124" viewBox="0 0 72 124" fill="none" xmlns="http://www.w3.org/2000/svg">
<path d="M43.3807 31.2013C43.3807 29.2914 42.6061 27.4597 41.2273 26.1092C39.8485 24.7587 37.9784 24 36.0284 24C34.0785 24 32.2084 24.7587 30.8296 26.1092C29.4508 27.4597 28.6761 29.2914 28.6761 31.2013C28.6761 39.6028 25 42.0032 25 42.0032H47.0569C47.0569 42.0032 43.3807 39.6028 43.3807 31.2013Z" stroke="#212121" stroke-linecap="round" stroke-linejoin="round"/>
<path d="M38.1484 46.804C37.933 47.1678 37.6237 47.4697 37.2517 47.6796C36.8796 47.8895 36.4578 48 36.0285 48C35.5991 48 35.1773 47.8895 34.8053 47.6796C34.4332 47.4697 34.124 47.1678 33.9086 46.804" stroke="#212121" stroke-linecap="round" stroke-linejoin="round"/>
<rect x="0.5" y="0.5" width="71" height="123" rx="4.5" stroke="#9747FF" stroke-dasharray="10 5"/>
</svg>
