<svg width="16" height="16" viewBox="0 0 16 16" fill="none" xmlns="http://www.w3.org/2000/svg">
<path d="M12.9411 5.0008C12.9411 3.80711 12.4569 2.66232 11.5952 1.81825C10.7334 0.97419 9.56461 0.5 8.34589 0.5C7.12718 0.5 5.95837 0.97419 5.09661 1.81825C4.23485 2.66232 3.75071 3.80711 3.75071 5.0008C3.75071 10.2517 1.45312 11.752 1.45312 11.752H15.2387C15.2387 11.752 12.9411 10.2517 12.9411 5.0008Z" stroke="white" stroke-linecap="round" stroke-linejoin="round"/>
<path d="M9.67088 14.7525C9.53623 14.9799 9.34297 15.1686 9.11044 15.2997C8.87791 15.4309 8.61428 15.5 8.34594 15.5C8.0776 15.5 7.81396 15.4309 7.58143 15.2997C7.34891 15.1686 7.15564 14.9799 7.021 14.7525" stroke="white" stroke-linecap="round" stroke-linejoin="round"/>
</svg>
