<svg width="120" height="20" viewBox="0 0 120 20" fill="none" xmlns="http://www.w3.org/2000/svg">
<rect width="120" height="20" rx="8" fill="#EEEAFE"/>
<rect width="60" height="20" rx="8" fill="#724CF9"/>
<path d="M8.172 8.648C8.62 8.552 9.032 8.504 9.408 8.504C9.856 8.504 10.252 8.57 10.596 8.702C10.94 8.834 11.226 9.016 11.454 9.248C11.686 9.48 11.86 9.754 11.976 10.07C12.096 10.386 12.156 10.73 12.156 11.102C12.156 11.558 12.076 11.97 11.916 12.338C11.76 12.706 11.542 13.022 11.262 13.286C10.986 13.546 10.66 13.746 10.284 13.886C9.908 14.026 9.502 14.096 9.066 14.096C8.814 14.096 8.572 14.07 8.34 14.018C8.108 13.97 7.89 13.904 7.686 13.82C7.486 13.736 7.3 13.64 7.128 13.532C6.956 13.424 6.804 13.31 6.672 13.19L7.002 12.734C7.074 12.63 7.168 12.578 7.284 12.578C7.364 12.578 7.454 12.61 7.554 12.674C7.654 12.734 7.776 12.802 7.92 12.878C8.064 12.954 8.232 13.024 8.424 13.088C8.62 13.148 8.852 13.178 9.12 13.178C9.42 13.178 9.69 13.13 9.93 13.034C10.17 12.938 10.376 12.802 10.548 12.626C10.72 12.446 10.852 12.232 10.944 11.984C11.036 11.736 11.082 11.458 11.082 11.15C11.082 10.882 11.042 10.64 10.962 10.424C10.886 10.208 10.768 10.024 10.608 9.872C10.452 9.72 10.256 9.602 10.02 9.518C9.784 9.434 9.508 9.392 9.192 9.392C8.976 9.392 8.75 9.41 8.514 9.446C8.282 9.482 8.044 9.54 7.8 9.62L7.128 9.422L7.818 5.402H11.892V5.87C11.892 6.022 11.844 6.148 11.748 6.248C11.656 6.344 11.496 6.392 11.268 6.392H8.568L8.172 8.648ZM19.5609 9.704C19.5609 10.456 19.4789 11.108 19.3149 11.66C19.1549 12.208 18.9349 12.662 18.6549 13.022C18.3749 13.382 18.0429 13.65 17.6589 13.826C17.2789 14.002 16.8709 14.09 16.4349 14.09C15.9949 14.09 15.5849 14.002 15.2049 13.826C14.8289 13.65 14.5009 13.382 14.2209 13.022C13.9409 12.662 13.7209 12.208 13.5609 11.66C13.4009 11.108 13.3209 10.456 13.3209 9.704C13.3209 8.952 13.4009 8.3 13.5609 7.748C13.7209 7.196 13.9409 6.74 14.2209 6.38C14.5009 6.016 14.8289 5.746 15.2049 5.57C15.5849 5.394 15.9949 5.306 16.4349 5.306C16.8709 5.306 17.2789 5.394 17.6589 5.57C18.0429 5.746 18.3749 6.016 18.6549 6.38C18.9349 6.74 19.1549 7.196 19.3149 7.748C19.4789 8.3 19.5609 8.952 19.5609 9.704ZM18.4509 9.704C18.4509 9.048 18.3949 8.498 18.2829 8.054C18.1749 7.606 18.0269 7.246 17.8389 6.974C17.6549 6.702 17.4409 6.508 17.1969 6.392C16.9529 6.272 16.6989 6.212 16.4349 6.212C16.1709 6.212 15.9169 6.272 15.6729 6.392C15.4289 6.508 15.2149 6.702 15.0309 6.974C14.8469 7.246 14.6989 7.606 14.5869 8.054C14.4789 8.498 14.4249 9.048 14.4249 9.704C14.4249 10.36 14.4789 10.91 14.5869 11.354C14.6989 11.798 14.8469 12.156 15.0309 12.428C15.2149 12.7 15.4289 12.896 15.6729 13.016C15.9169 13.132 16.1709 13.19 16.4349 13.19C16.6989 13.19 16.9529 13.132 17.1969 13.016C17.4409 12.896 17.6549 12.7 17.8389 12.428C18.0269 12.156 18.1749 11.798 18.2829 11.354C18.3949 10.91 18.4509 10.36 18.4509 9.704ZM24.2539 7.478C24.2539 7.814 24.2019 8.116 24.0979 8.384C23.9939 8.648 23.8539 8.872 23.6779 9.056C23.5059 9.236 23.3039 9.374 23.0719 9.47C22.8439 9.566 22.6019 9.614 22.3459 9.614C22.0779 9.614 21.8279 9.566 21.5959 9.47C21.3639 9.374 21.1619 9.236 20.9899 9.056C20.8219 8.872 20.6899 8.648 20.5939 8.384C20.4979 8.116 20.4499 7.814 20.4499 7.478C20.4499 7.134 20.4979 6.828 20.5939 6.56C20.6899 6.292 20.8219 6.066 20.9899 5.882C21.1619 5.698 21.3639 5.558 21.5959 5.462C21.8279 5.366 22.0779 5.318 22.3459 5.318C22.6179 5.318 22.8699 5.366 23.1019 5.462C23.3339 5.558 23.5359 5.698 23.7079 5.882C23.8799 6.066 24.0139 6.292 24.1099 6.56C24.2059 6.828 24.2539 7.134 24.2539 7.478ZM23.4259 7.478C23.4259 7.214 23.3979 6.99 23.3419 6.806C23.2859 6.622 23.2079 6.472 23.1079 6.356C23.0119 6.236 22.8979 6.15 22.7659 6.098C22.6339 6.046 22.4939 6.02 22.3459 6.02C22.1979 6.02 22.0599 6.046 21.9319 6.098C21.8039 6.15 21.6919 6.236 21.5959 6.356C21.4999 6.472 21.4239 6.622 21.3679 6.806C21.3119 6.99 21.2839 7.214 21.2839 7.478C21.2839 7.738 21.3119 7.96 21.3679 8.144C21.4239 8.324 21.4999 8.472 21.5959 8.588C21.6919 8.7 21.8039 8.782 21.9319 8.834C22.0599 8.882 22.1979 8.906 22.3459 8.906C22.4939 8.906 22.6339 8.882 22.7659 8.834C22.8979 8.782 23.0119 8.7 23.1079 8.588C23.2079 8.472 23.2859 8.324 23.3419 8.144C23.3979 7.96 23.4259 7.738 23.4259 7.478ZM27.2959 5.582C27.3359 5.534 27.3819 5.492 27.4339 5.456C27.4899 5.42 27.5639 5.402 27.6559 5.402H28.4299L22.1419 13.826C22.1059 13.878 22.0599 13.92 22.0039 13.952C21.9479 13.984 21.8799 14 21.7999 14H21.0139L27.2959 5.582ZM29.0119 11.972C29.0119 12.308 28.9599 12.608 28.8559 12.872C28.7519 13.136 28.6119 13.36 28.4359 13.544C28.2639 13.724 28.0619 13.862 27.8299 13.958C27.6019 14.054 27.3599 14.102 27.1039 14.102C26.8319 14.102 26.5799 14.054 26.3479 13.958C26.1199 13.862 25.9199 13.724 25.7479 13.544C25.5799 13.36 25.4479 13.136 25.3519 12.872C25.2559 12.608 25.2079 12.308 25.2079 11.972C25.2079 11.628 25.2559 11.322 25.3519 11.054C25.4479 10.782 25.5799 10.554 25.7479 10.37C25.9199 10.186 26.1199 10.046 26.3479 9.95C26.5799 9.854 26.8319 9.806 27.1039 9.806C27.3719 9.806 27.6219 9.854 27.8539 9.95C28.0899 10.046 28.2919 10.186 28.4599 10.37C28.6319 10.554 28.7659 10.782 28.8619 11.054C28.9619 11.322 29.0119 11.628 29.0119 11.972ZM28.1839 11.972C28.1839 11.708 28.1559 11.484 28.0999 11.3C28.0439 11.112 27.9659 10.96 27.8659 10.844C27.7699 10.728 27.6559 10.644 27.5239 10.592C27.3919 10.54 27.2519 10.514 27.1039 10.514C26.9559 10.514 26.8159 10.54 26.6839 10.592C26.5559 10.644 26.4439 10.728 26.3479 10.844C26.2519 10.96 26.1759 11.112 26.1199 11.3C26.0679 11.484 26.0419 11.708 26.0419 11.972C26.0419 12.232 26.0679 12.452 26.1199 12.632C26.1759 12.812 26.2519 12.96 26.3479 13.076C26.4439 13.188 26.5559 13.27 26.6839 13.322C26.8159 13.37 26.9559 13.394 27.1039 13.394C27.2519 13.394 27.3919 13.37 27.5239 13.322C27.6559 13.27 27.7699 13.188 27.8659 13.076C27.9659 12.96 28.0439 12.812 28.0999 12.632C28.1559 12.452 28.1839 12.232 28.1839 11.972Z" fill="white"/>
</svg>
