<svg width="14" height="16" viewBox="0 0 14 16" fill="none" xmlns="http://www.w3.org/2000/svg">
<mask id="path-1-inside-1_261_731" fill="white">
<path d="M11.6422 1.69998H10.0349V0.831638C10.0349 0.657947 9.89448 0.5 9.70713 0.5H8.73964C8.56798 0.5 8.41188 0.642081 8.41188 0.831638V1.7001L5.24402 1.69999V0.831641C5.24402 0.65795 5.1036 0.500003 4.91626 0.500003H3.94876C3.7771 0.500003 3.621 0.642084 3.621 0.831641V1.7001L2.02935 1.69999C1.23352 1.69999 0.578125 2.36315 0.578125 3.16837V10.8737C0.578125 11.6789 1.23354 12.3421 2.02935 12.3421H3.26211C3.49614 14.1263 5.00986 15.5 6.82009 15.5C8.63032 15.5 10.144 14.1263 10.3781 12.3421H11.6265C12.4224 12.3421 13.0777 11.6789 13.0777 10.8737L13.0779 3.16837C13.0934 2.36304 12.438 1.69988 11.6422 1.69988L11.6422 1.69998ZM6.83583 14.5212C5.38461 14.5212 4.21422 13.3212 4.21422 11.8686C4.21422 10.4002 5.40019 9.21595 6.83583 9.21595C8.27148 9.21595 9.45745 10.4159 9.45745 11.8686C9.45745 13.3211 8.28706 14.5212 6.83583 14.5212ZM11.6422 11.3632H10.3938C10.3002 10.6685 10.0192 10.0369 9.59795 9.5316L9.84766 9.27894L9.97252 9.40528C10.0661 9.5 10.2066 9.5 10.3003 9.40528L10.4719 9.23158C10.5656 9.13686 10.5656 8.99479 10.4719 8.89995L9.78529 8.20518C9.69167 8.11045 9.55126 8.11045 9.45752 8.20518L9.28586 8.37887C9.19225 8.47359 9.19225 8.61567 9.28586 8.7105L9.41072 8.83684L9.16101 9.0895C8.64604 8.64739 8.02186 8.36312 7.31965 8.26841V7.81056H7.63173C7.75658 7.81056 7.86576 7.69998 7.86576 7.57377V7.02107C7.86576 6.89474 7.75647 6.78427 7.63173 6.78427L6.03997 6.78416C5.91511 6.78416 5.80594 6.89474 5.80594 7.02096V7.57366C5.80594 7.69999 5.91523 7.81045 6.03997 7.81045H6.35205V8.2683C5.66539 8.36302 5.02555 8.64727 4.52624 9.07354L4.27653 8.82088L4.40139 8.69455C4.495 8.59983 4.495 8.45775 4.40139 8.36291L4.22972 8.18922C4.13611 8.0945 3.99569 8.0945 3.90196 8.18922L3.2153 8.88399C3.12169 8.97871 3.12169 9.12079 3.2153 9.21563L3.38696 9.38932C3.48058 9.48404 3.621 9.48404 3.71473 9.38932L3.83959 9.26299L4.08929 9.51565C3.66792 10.0367 3.3714 10.6683 3.2778 11.363H2.04504C1.77977 11.363 1.56131 11.142 1.56131 10.8736L1.5612 4.98406H12.1259V10.8736C12.1259 11.1579 11.9074 11.3631 11.6422 11.3631L11.6422 11.3632Z"/>
</mask>
<path d="M11.6422 1.69998H10.0349V0.831638C10.0349 0.657947 9.89448 0.5 9.70713 0.5H8.73964C8.56798 0.5 8.41188 0.642081 8.41188 0.831638V1.7001L5.24402 1.69999V0.831641C5.24402 0.65795 5.1036 0.500003 4.91626 0.500003H3.94876C3.7771 0.500003 3.621 0.642084 3.621 0.831641V1.7001L2.02935 1.69999C1.23352 1.69999 0.578125 2.36315 0.578125 3.16837V10.8737C0.578125 11.6789 1.23354 12.3421 2.02935 12.3421H3.26211C3.49614 14.1263 5.00986 15.5 6.82009 15.5C8.63032 15.5 10.144 14.1263 10.3781 12.3421H11.6265C12.4224 12.3421 13.0777 11.6789 13.0777 10.8737L13.0779 3.16837C13.0934 2.36304 12.438 1.69988 11.6422 1.69988L11.6422 1.69998ZM6.83583 14.5212C5.38461 14.5212 4.21422 13.3212 4.21422 11.8686C4.21422 10.4002 5.40019 9.21595 6.83583 9.21595C8.27148 9.21595 9.45745 10.4159 9.45745 11.8686C9.45745 13.3211 8.28706 14.5212 6.83583 14.5212ZM11.6422 11.3632H10.3938C10.3002 10.6685 10.0192 10.0369 9.59795 9.5316L9.84766 9.27894L9.97252 9.40528C10.0661 9.5 10.2066 9.5 10.3003 9.40528L10.4719 9.23158C10.5656 9.13686 10.5656 8.99479 10.4719 8.89995L9.78529 8.20518C9.69167 8.11045 9.55126 8.11045 9.45752 8.20518L9.28586 8.37887C9.19225 8.47359 9.19225 8.61567 9.28586 8.7105L9.41072 8.83684L9.16101 9.0895C8.64604 8.64739 8.02186 8.36312 7.31965 8.26841V7.81056H7.63173C7.75658 7.81056 7.86576 7.69998 7.86576 7.57377V7.02107C7.86576 6.89474 7.75647 6.78427 7.63173 6.78427L6.03997 6.78416C5.91511 6.78416 5.80594 6.89474 5.80594 7.02096V7.57366C5.80594 7.69999 5.91523 7.81045 6.03997 7.81045H6.35205V8.2683C5.66539 8.36302 5.02555 8.64727 4.52624 9.07354L4.27653 8.82088L4.40139 8.69455C4.495 8.59983 4.495 8.45775 4.40139 8.36291L4.22972 8.18922C4.13611 8.0945 3.99569 8.0945 3.90196 8.18922L3.2153 8.88399C3.12169 8.97871 3.12169 9.12079 3.2153 9.21563L3.38696 9.38932C3.48058 9.48404 3.621 9.48404 3.71473 9.38932L3.83959 9.26299L4.08929 9.51565C3.66792 10.0367 3.3714 10.6683 3.2778 11.363H2.04504C1.77977 11.363 1.56131 11.142 1.56131 10.8736L1.5612 4.98406H12.1259V10.8736C12.1259 11.1579 11.9074 11.3631 11.6422 11.3631L11.6422 11.3632Z" fill="white"/>
<path d="M11.6422 1.69998V2.69998H13.316L12.5228 1.22607L11.6422 1.69998ZM10.0349 1.69998H9.0349V2.69998H10.0349V1.69998ZM8.41188 1.7001L8.41184 2.7001L9.41188 2.70013V1.7001H8.41188ZM5.24402 1.69999H4.24402V2.69995L5.24399 2.69999L5.24402 1.69999ZM3.621 1.7001L3.62093 2.7001L4.621 2.70017V1.7001H3.621ZM2.02935 1.69999L2.02942 0.699988H2.02935V1.69999ZM3.26211 12.3421L4.25361 12.212L4.13951 11.3421H3.26211V12.3421ZM10.3781 12.3421V11.3421H9.5007L9.38657 12.212L10.3781 12.3421ZM13.0777 10.8737L12.0777 10.8737V10.8737H13.0777ZM13.0779 3.16837L12.078 3.14904L12.0779 3.1587V3.16835L13.0779 3.16837ZM11.6422 1.69988V0.699875H9.96837L10.7616 2.17379L11.6422 1.69988ZM11.6422 11.3632V12.3632H13.4772L12.4826 10.8212L11.6422 11.3632ZM10.3938 11.3632L9.40275 11.4968L9.5195 12.3632H10.3938V11.3632ZM9.59795 9.5316L8.88671 8.82866L8.24841 9.4745L8.82987 10.172L9.59795 9.5316ZM9.84766 9.27894L10.5589 8.576L9.84766 7.85635L9.13641 8.576L9.84766 9.27894ZM10.3003 9.40528L11.0111 10.1087L11.0115 10.1082L10.3003 9.40528ZM10.4719 9.23158L11.1832 9.93453L11.1832 9.93453L10.4719 9.23158ZM10.4719 8.89995L11.1836 8.19745L11.1832 8.19701L10.4719 8.89995ZM9.78529 8.20518L9.07404 8.90812L9.78529 8.20518ZM9.45752 8.20518L8.74671 7.50179L8.74627 7.50223L9.45752 8.20518ZM9.28586 8.7105L8.57417 9.413L8.57461 9.41345L9.28586 8.7105ZM9.41072 8.83684L10.122 9.53978L10.8167 8.83684L10.122 8.13389L9.41072 8.83684ZM9.16101 9.0895L8.50962 9.84824L9.21695 10.4555L9.87226 9.79244L9.16101 9.0895ZM7.31965 8.26841H6.31965V9.14259L7.18599 9.25943L7.31965 8.26841ZM7.31965 7.81056V6.81056H6.31965V7.81056H7.31965ZM7.63173 6.78427L7.63166 7.78427H7.63173V6.78427ZM6.03997 6.78416L6.04004 5.78416H6.03997V6.78416ZM6.35205 7.81045H7.35205V6.81045H6.35205V7.81045ZM6.35205 8.2683L6.4887 9.25892L7.35205 9.13982V8.2683H6.35205ZM4.52624 9.07354L3.81499 9.77648L4.46848 10.4377L5.17552 9.83409L4.52624 9.07354ZM4.27653 8.82088L3.56528 8.11794L2.87055 8.82088L3.56528 9.52382L4.27653 8.82088ZM4.40139 8.69455L5.11263 9.39749L4.40139 8.69455ZM4.40139 8.36291L5.11307 7.66041L5.11263 7.65997L4.40139 8.36291ZM4.22972 8.18922L3.51847 8.89216L3.51848 8.89216L4.22972 8.18922ZM3.90196 8.18922L3.19115 7.48583L3.19071 7.48628L3.90196 8.18922ZM3.2153 8.88399L2.50405 8.18105L2.50405 8.18105L3.2153 8.88399ZM3.2153 9.21563L2.50361 9.91813L2.50405 9.91857L3.2153 9.21563ZM3.38696 9.38932L2.67572 10.0923L2.67572 10.0923L3.38696 9.38932ZM3.71473 9.38932L4.42554 10.0927L4.42598 10.0923L3.71473 9.38932ZM3.83959 9.26299L4.55083 8.56005L3.83959 7.84039L3.12834 8.56005L3.83959 9.26299ZM4.08929 9.51565L4.86686 10.1445L5.42932 9.44892L4.80054 8.81271L4.08929 9.51565ZM3.2778 11.363V12.363H4.1521L4.26884 11.4966L3.2778 11.363ZM1.56131 10.8736H2.56131V10.8736L1.56131 10.8736ZM1.5612 4.98406V3.98406H0.56118L0.561199 4.98408L1.5612 4.98406ZM12.1259 4.98406H13.1259V3.98406H12.1259V4.98406ZM11.6422 11.3631V10.3631H9.8072L10.8018 11.9052L11.6422 11.3631ZM11.6422 0.699983H10.0349V2.69998H11.6422V0.699983ZM11.0349 1.69998V0.831638H9.0349V1.69998H11.0349ZM11.0349 0.831638C11.0349 0.148252 10.4884 -0.5 9.70713 -0.5V1.5C9.30054 1.5 9.0349 1.16764 9.0349 0.831638H11.0349ZM9.70713 -0.5H8.73964V1.5H9.70713V-0.5ZM8.73964 -0.5C8.03578 -0.5 7.41188 0.0699226 7.41188 0.831638H9.41188C9.41188 1.21424 9.10018 1.5 8.73964 1.5V-0.5ZM7.41188 0.831638V1.7001H9.41188V0.831638H7.41188ZM8.41191 0.700095L5.24406 0.699985L5.24399 2.69999L8.41184 2.7001L8.41191 0.700095ZM6.24402 1.69999V0.831641H4.24402V1.69999H6.24402ZM6.24402 0.831641C6.24402 0.148251 5.69753 -0.499997 4.91626 -0.499997V1.5C4.50967 1.5 4.24402 1.16765 4.24402 0.831641H6.24402ZM4.91626 -0.499997H3.94876V1.5H4.91626V-0.499997ZM3.94876 -0.499997C3.2449 -0.499997 2.621 0.0699254 2.621 0.831641H4.621C4.621 1.21424 4.3093 1.5 3.94876 1.5V-0.499997ZM2.621 0.831641V1.7001H4.621V0.831641H2.621ZM3.62107 0.700098L2.02942 0.699988L2.02928 2.69999L3.62093 2.7001L3.62107 0.700098ZM2.02935 0.699988C0.670174 0.699988 -0.421875 1.82199 -0.421875 3.16837H1.57812C1.57812 2.90431 1.79686 2.69999 2.02935 2.69999V0.699988ZM-0.421875 3.16837V10.8737H1.57812V3.16837H-0.421875ZM-0.421875 10.8737C-0.421875 12.2201 0.670226 13.3421 2.02935 13.3421V11.3421C1.79686 11.3421 1.57812 11.1378 1.57812 10.8737H-0.421875ZM2.02935 13.3421H3.26211V11.3421H2.02935V13.3421ZM2.2706 12.4721C2.56783 14.7382 4.49192 16.5 6.82009 16.5V14.5C5.5278 14.5 4.42445 13.5145 4.25361 12.212L2.2706 12.4721ZM6.82009 16.5C9.14828 16.5 11.0723 14.7382 11.3696 12.4722L9.38657 12.212C9.21569 13.5145 8.11236 14.5 6.82009 14.5V16.5ZM10.3781 13.3421H11.6265V11.3421H10.3781V13.3421ZM11.6265 13.3421C12.9857 13.3421 14.0777 12.2201 14.0777 10.8737H12.0777C12.0777 11.1377 11.859 11.3421 11.6265 11.3421V13.3421ZM14.0777 10.8737L14.0779 3.16838L12.0779 3.16835L12.0777 10.8737L14.0777 10.8737ZM14.0777 3.18769C14.1041 1.82251 12.9978 0.699875 11.6422 0.699875V2.69988C11.8783 2.69988 12.0828 2.90356 12.078 3.14904L14.0777 3.18769ZM10.7616 2.17379L10.7617 2.17389L12.5228 1.22607L12.5227 1.22596L10.7616 2.17379ZM6.83583 13.5212C5.95177 13.5212 5.21422 12.7839 5.21422 11.8686H3.21422C3.21422 13.8585 4.81744 15.5212 6.83583 15.5212V13.5212ZM5.21422 11.8686C5.21422 10.9452 5.95967 10.216 6.83583 10.216V8.21595C4.8407 8.21595 3.21422 9.85511 3.21422 11.8686H5.21422ZM6.83583 10.216C7.70816 10.216 8.45745 10.9571 8.45745 11.8686H10.4575C10.4575 9.87476 8.83481 8.21595 6.83583 8.21595V10.216ZM8.45745 11.8686C8.45745 12.7838 7.71987 13.5212 6.83583 13.5212V15.5212C8.85425 15.5212 10.4575 13.8583 10.4575 11.8686H8.45745ZM11.6422 10.3632H10.3938V12.3632H11.6422V10.3632ZM11.3848 11.2297C11.2665 10.3516 10.9099 9.54363 10.366 8.89126L8.82987 10.172C9.12856 10.5302 9.33384 10.9853 9.40275 11.4968L11.3848 11.2297ZM10.3092 10.2345L10.5589 9.98189L9.13641 8.576L8.88671 8.82866L10.3092 10.2345ZM9.13641 9.98189L9.26127 10.1082L10.6838 8.70234L10.5589 8.576L9.13641 9.98189ZM9.26127 10.1082C9.74658 10.5993 10.5262 10.5986 11.0111 10.1087L9.58947 8.70189C9.72305 8.56691 9.91752 8.47632 10.1364 8.47632C10.3552 8.47632 10.55 8.56696 10.6838 8.70234L9.26127 10.1082ZM11.0115 10.1082L11.1832 9.93453L9.7607 8.52864L9.58904 8.70233L11.0115 10.1082ZM11.1832 9.93453C11.6621 9.45001 11.6614 8.68149 11.1836 8.19745L9.76026 9.60244C9.4697 9.30808 9.46907 8.82372 9.7607 8.52864L11.1832 9.93453ZM11.1832 8.19701L10.4965 7.50223L9.07404 8.90812L9.7607 9.60289L11.1832 8.19701ZM10.4965 7.50223C10.0112 7.01119 9.23156 7.01183 8.74671 7.50179L10.1683 8.90856C10.0348 9.04355 9.84029 9.13414 9.62145 9.13414C9.40257 9.13414 9.20784 9.0435 9.07404 8.90812L10.4965 7.50223ZM8.74627 7.50223L8.57461 7.67593L9.99711 9.08181L10.1688 8.90812L8.74627 7.50223ZM8.57461 7.67593C8.09576 8.16044 8.09638 8.92896 8.57417 9.413L9.99755 8.00801C10.2881 8.30237 10.2887 8.78673 9.99711 9.08181L8.57461 7.67593ZM8.57461 9.41345L8.69947 9.53978L10.122 8.13389L9.99711 8.00756L8.57461 9.41345ZM8.69947 8.13389L8.44976 8.38655L9.87226 9.79244L10.122 9.53978L8.69947 8.13389ZM9.8124 8.33075C9.1506 7.76259 8.34652 7.39785 7.45332 7.27738L7.18599 9.25943C7.6972 9.32838 8.14147 9.53218 8.50962 9.84824L9.8124 8.33075ZM8.31965 8.26841V7.81056H6.31965V8.26841H8.31965ZM7.31965 8.81056H7.63173V6.81056H7.31965V8.81056ZM7.63173 8.81056C8.32021 8.81056 8.86576 8.24086 8.86576 7.57377H6.86576C6.86576 7.34658 6.96219 7.16017 7.0842 7.03667C7.20614 6.91326 7.39576 6.81056 7.63173 6.81056V8.81056ZM8.86576 7.57377V7.02107H6.86576V7.57377H8.86576ZM8.86576 7.02107C8.86576 6.35326 8.31949 5.78427 7.63173 5.78427V7.78427C7.39586 7.78427 7.20632 7.68168 7.08439 7.55836C6.96229 7.43485 6.86576 7.24835 6.86576 7.02107H8.86576ZM7.6318 5.78427L6.04004 5.78416L6.0399 7.78416L7.63166 7.78427L7.6318 5.78427ZM6.03997 5.78416C5.35148 5.78416 4.80594 6.35387 4.80594 7.02096H6.80594C6.80594 7.24815 6.70951 7.43456 6.58749 7.55806C6.46556 7.68147 6.27594 7.78416 6.03997 7.78416V5.78416ZM4.80594 7.02096V7.57366H6.80594V7.02096H4.80594ZM4.80594 7.57366C4.80594 8.24147 5.35221 8.81045 6.03997 8.81045V6.81045C6.27584 6.81045 6.46538 6.91304 6.58731 7.03637C6.70941 7.15988 6.80594 7.34637 6.80594 7.57366H4.80594ZM6.03997 8.81045H6.35205V6.81045H6.03997V8.81045ZM5.35205 7.81045V8.2683H7.35205V7.81045H5.35205ZM6.2154 7.27768C5.34743 7.39741 4.5277 7.75745 3.87696 8.31299L5.17552 9.83409C5.5234 9.5371 5.98335 9.32863 6.4887 9.25892L6.2154 7.27768ZM5.23749 8.3706L4.98778 8.11794L3.56528 9.52382L3.81499 9.77648L5.23749 8.3706ZM4.98778 9.52382L5.11263 9.39749L3.69014 7.99161L3.56528 8.11794L4.98778 9.52382ZM5.11263 9.39749C5.59149 8.91297 5.59086 8.14446 5.11307 7.66041L3.6897 9.06541C3.39914 8.77104 3.39851 8.28668 3.69014 7.99161L5.11263 9.39749ZM5.11263 7.65997L4.94097 7.48628L3.51848 8.89216L3.69014 9.06585L5.11263 7.65997ZM4.94097 7.48628C4.45566 6.99523 3.67599 6.99587 3.19115 7.48583L4.61277 8.8926C4.47919 9.02759 4.28472 9.11818 4.06588 9.11818C3.847 9.11818 3.65227 9.02754 3.51847 8.89216L4.94097 7.48628ZM3.19071 7.48628L2.50405 8.18105L3.92655 9.58693L4.61321 8.89216L3.19071 7.48628ZM2.50405 8.18105C2.0252 8.66557 2.02582 9.43408 2.50361 9.91813L3.92699 8.51313C4.21755 8.8075 4.21818 9.29186 3.92655 9.58693L2.50405 8.18105ZM2.50405 9.91857L2.67572 10.0923L4.09821 8.68638L3.92655 8.51269L2.50405 9.91857ZM2.67572 10.0923C3.16103 10.5833 3.9407 10.5827 4.42554 10.0927L3.00392 8.68594C3.1375 8.55095 3.33197 8.46036 3.5508 8.46036C3.76968 8.46036 3.96441 8.551 4.09821 8.68638L2.67572 10.0923ZM4.42598 10.0923L4.55083 9.96593L3.12834 8.56005L3.00348 8.68638L4.42598 10.0923ZM3.12834 9.96593L3.37804 10.2186L4.80054 8.81271L4.55083 8.56005L3.12834 9.96593ZM3.31173 8.88685C2.7871 9.53559 2.40722 10.3353 2.28675 11.2295L4.26884 11.4966C4.33558 11.0012 4.54875 10.5378 4.86686 10.1445L3.31173 8.88685ZM3.2778 10.363H2.04504V12.363H3.2778V10.363ZM2.04504 10.363C2.34311 10.363 2.56131 10.6008 2.56131 10.8736H0.561308C0.561308 11.6831 1.21643 12.363 2.04504 12.363V10.363ZM2.56131 10.8736L2.5612 4.98404L0.561199 4.98408L0.561308 10.8736L2.56131 10.8736ZM1.5612 5.98406H12.1259V3.98406H1.5612V5.98406ZM11.1259 4.98406V10.8736H13.1259V4.98406H11.1259ZM11.1259 10.8736C11.1259 10.7505 11.1768 10.6164 11.2801 10.5142C11.3806 10.4147 11.5129 10.3631 11.6422 10.3631V12.3631C12.4498 12.3631 13.1259 11.72 13.1259 10.8736H11.1259ZM10.8018 11.9052L10.8019 11.9053L12.4826 10.8212L12.4825 10.8211L10.8018 11.9052Z" fill="white" mask="url(#path-1-inside-1_261_731)"/>
</svg>
