<svg width="20" height="24" viewBox="0 0 20 24" fill="none" xmlns="http://www.w3.org/2000/svg">
<path d="M17.7026 1.91997H15.1308V0.530621C15.1308 0.252715 14.9062 0 14.6064 0H13.0584C12.7838 0 12.534 0.22733 12.534 0.530621V1.92015L7.46544 1.91998V0.530626C7.46544 0.252719 7.24076 4.25931e-06 6.94101 4.25931e-06H5.39302C5.11836 4.25931e-06 4.8686 0.227334 4.8686 0.530626V1.92016L2.32196 1.91998C1.04862 1.91998 0 2.98104 0 4.26939V16.5979C0 17.8863 1.04867 18.9473 2.32196 18.9473H4.29437C4.66882 21.8021 7.09078 24 9.98714 24C12.8835 24 15.3054 21.8021 15.6799 18.9473H17.6774C18.9508 18.9473 19.9994 17.8863 19.9994 16.5979L19.9996 4.26939C20.0245 2.98086 18.9758 1.9198 17.7025 1.9198L17.7026 1.91997ZM10.0123 22.4338C7.69037 22.4338 5.81775 20.5139 5.81775 18.1897C5.81775 15.8403 7.7153 13.9455 10.0123 13.9455C12.3094 13.9455 14.2069 15.8655 14.2069 18.1897C14.2069 20.5137 12.3343 22.4338 10.0123 22.4338ZM17.7026 17.3812H15.7051C15.5553 16.2695 15.1058 15.2591 14.4317 14.4506L14.8313 14.0463L15.031 14.2484C15.1808 14.4 15.4055 14.4 15.5555 14.2484L15.8301 13.9705C15.9799 13.819 15.9799 13.5917 15.8301 13.4399L14.7315 12.3283C14.5817 12.1767 14.357 12.1767 14.207 12.3283L13.9324 12.6062C13.7826 12.7577 13.7826 12.9851 13.9324 13.1368L14.1321 13.3389L13.7326 13.7432C12.9087 13.0358 11.91 12.581 10.7864 12.4295V11.6969H11.2858C11.4855 11.6969 11.6602 11.52 11.6602 11.318V10.4337C11.6602 10.2316 11.4854 10.0548 11.2858 10.0548L8.73895 10.0547C8.53918 10.0547 8.3645 10.2316 8.3645 10.4335V11.3178C8.3645 11.52 8.53936 11.6967 8.73895 11.6967H9.23827V12.4293C8.13962 12.5808 7.11588 13.0356 6.31698 13.7177L5.91745 13.3134L6.11722 13.1113C6.267 12.9597 6.267 12.7324 6.11722 12.5807L5.84256 12.3028C5.69277 12.1512 5.4681 12.1512 5.31813 12.3028L4.21948 13.4144C4.0697 13.5659 4.0697 13.7933 4.21948 13.945L4.49414 14.2229C4.64393 14.3745 4.8686 14.3745 5.01857 14.2229L5.21834 14.0208L5.61787 14.425C4.94368 15.2587 4.46924 16.2692 4.31947 17.3809H2.34707C1.92263 17.3809 1.57309 17.0272 1.57309 16.5977L1.57292 7.17449H18.4765V16.5977C18.4765 17.0526 18.1269 17.381 17.7025 17.381L17.7026 17.3812Z" fill="black"/>
</svg>
