<svg width="32" height="32" viewBox="0 0 32 32" fill="none" xmlns="http://www.w3.org/2000/svg">
<rect width="32" height="32" rx="8" fill="#724CF9"/>
<path d="M15.2093 10.0814H9.99096C9.59553 10.0814 9.2163 10.2385 8.93669 10.5181C8.65708 10.7977 8.5 11.1769 8.5 11.5723V22.009C8.5 22.4045 8.65708 22.7837 8.93669 23.0633C9.2163 23.3429 9.59553 23.5 9.99096 23.5H20.4276C20.8231 23.5 21.2023 23.3429 21.4819 23.0633C21.7615 22.7837 21.9186 22.4045 21.9186 22.009V16.7907" stroke="white" stroke-linecap="round" stroke-linejoin="round"/>
<path d="M20.8002 8.96318C21.0967 8.66661 21.499 8.5 21.9184 8.5C22.3378 8.5 22.74 8.66661 23.0366 8.96318C23.3332 9.25975 23.4998 9.66198 23.4998 10.0814C23.4998 10.5008 23.3332 10.903 23.0366 11.1996L15.9546 18.2817L12.9727 19.0271L13.7181 16.0452L20.8002 8.96318Z" stroke="white" stroke-linecap="round" stroke-linejoin="round"/>
</svg>
