<svg width="16" height="16" viewBox="0 0 16 16" fill="none" xmlns="http://www.w3.org/2000/svg">
<path d="M8 2C6.81331 2 5.65328 2.35189 4.66658 3.01118C3.67989 3.67047 2.91085 4.60754 2.45673 5.7039C2.0026 6.80025 1.88378 8.00666 2.11529 9.17054C2.3468 10.3344 2.91825 11.4035 3.75736 12.2426C4.59648 13.0818 5.66557 13.6532 6.82946 13.8847C7.99335 14.1162 9.19975 13.9974 10.2961 13.5433C11.3925 13.0891 12.3295 12.3201 12.9888 11.3334C13.6481 10.3467 14 9.18669 14 8C13.997 6.40964 13.3638 4.88529 12.2393 3.76073C11.1147 2.63617 9.59036 2.00305 8 2ZM10.8558 6.95L7.475 10.1808C7.3876 10.263 7.27192 10.3084 7.15193 10.3077C7.09327 10.3085 7.03504 10.2977 6.98058 10.276C6.92612 10.2542 6.87651 10.2218 6.83462 10.1808L5.14423 8.56538C5.09735 8.52448 5.05922 8.47451 5.03213 8.4185C5.00505 8.36248 4.98957 8.30157 4.98663 8.23941C4.98369 8.17726 4.99335 8.11516 5.01502 8.05683C5.0367 7.99851 5.06994 7.94517 5.11275 7.90002C5.15557 7.85487 5.20707 7.81885 5.26416 7.79411C5.32125 7.76937 5.38276 7.75643 5.44498 7.75607C5.5072 7.75571 5.56885 7.76793 5.62622 7.79201C5.6836 7.81608 5.73551 7.8515 5.77885 7.89615L7.15193 9.20577L10.2212 6.28077C10.3109 6.20247 10.4274 6.1619 10.5464 6.16753C10.6654 6.17316 10.7775 6.22455 10.8595 6.31097C10.9414 6.39739 10.9868 6.51214 10.9861 6.63123C10.9854 6.75032 10.9387 6.86454 10.8558 6.95Z" fill="#12B76A"/>
</svg>
