<svg width="17" height="16" viewBox="0 0 17 16" fill="none" xmlns="http://www.w3.org/2000/svg">
<path d="M8.82812 15.5C12.9703 15.5 16.3281 12.1421 16.3281 8C16.3281 3.85786 12.9703 0.5 8.82812 0.5C4.68599 0.5 1.32812 3.85786 1.32812 8C1.32812 12.1421 4.68599 15.5 8.82812 15.5Z" stroke="white" stroke-linecap="round" stroke-linejoin="round"/>
<path d="M8.82812 12.5C11.3134 12.5 13.3281 10.4853 13.3281 8C13.3281 5.51472 11.3134 3.5 8.82812 3.5C6.34284 3.5 4.32812 5.51472 4.32812 8C4.32812 10.4853 6.34284 12.5 8.82812 12.5Z" stroke="white" stroke-linecap="round" stroke-linejoin="round"/>
<path d="M8.82806 9.5C9.65649 9.5 10.3281 8.82843 10.3281 8C10.3281 7.17157 9.65649 6.5 8.82806 6.5C7.99964 6.5 7.32806 7.17157 7.32806 8C7.32806 8.82843 7.99964 9.5 8.82806 9.5Z" stroke="white" stroke-linecap="round" stroke-linejoin="round"/>
</svg>
