<svg width="80" height="26" viewBox="0 0 80 26" fill="none" xmlns="http://www.w3.org/2000/svg">
<rect y="0.5" width="80" height="25" rx="12.5" fill="#F04438"/>
<path d="M23.558 17.1C23.1753 17.5433 22.718 17.8957 22.186 18.157C21.6587 18.4183 21.0263 18.5677 20.289 18.605L20.17 19.025C20.604 19.1137 20.9167 19.2397 21.108 19.403C21.2993 19.5663 21.395 19.774 21.395 20.026C21.395 20.1753 21.3577 20.3107 21.283 20.432C21.2083 20.5533 21.1033 20.656 20.968 20.74C20.8373 20.824 20.6787 20.887 20.492 20.929C20.3053 20.9757 20.1 20.999 19.876 20.999C19.6847 20.999 19.5027 20.978 19.33 20.936C19.1573 20.8987 18.9987 20.8473 18.854 20.782L18.973 20.397C19.001 20.313 19.0547 20.271 19.134 20.271C19.162 20.271 19.1947 20.278 19.232 20.292C19.2693 20.3107 19.3137 20.3293 19.365 20.348C19.421 20.3713 19.484 20.39 19.554 20.404C19.6287 20.4227 19.715 20.432 19.813 20.432C20.009 20.432 20.156 20.3923 20.254 20.313C20.3567 20.2337 20.408 20.1333 20.408 20.012C20.408 19.8347 20.31 19.7087 20.114 19.634C19.918 19.564 19.6403 19.5057 19.281 19.459L19.568 18.598C18.9007 18.556 18.2963 18.402 17.755 18.136C17.2137 17.87 16.7493 17.513 16.362 17.065C15.9793 16.617 15.683 16.0897 15.473 15.483C15.2677 14.8763 15.165 14.2113 15.165 13.488C15.165 12.732 15.284 12.039 15.522 11.409C15.76 10.779 16.0937 10.2377 16.523 9.785C16.957 9.33233 17.475 8.98233 18.077 8.735C18.679 8.483 19.344 8.357 20.072 8.357C20.786 8.357 21.416 8.47133 21.962 8.7C22.508 8.92867 22.9887 9.239 23.404 9.631L22.956 10.254C22.928 10.3007 22.8907 10.3403 22.844 10.373C22.802 10.401 22.7437 10.415 22.669 10.415C22.585 10.415 22.4823 10.3707 22.361 10.282C22.2397 10.1887 22.081 10.086 21.885 9.974C21.689 9.862 21.444 9.76167 21.15 9.673C20.856 9.57967 20.4943 9.533 20.065 9.533C19.547 9.533 19.0733 9.624 18.644 9.806C18.2147 9.98333 17.8437 10.2423 17.531 10.583C17.223 10.9237 16.9827 11.339 16.81 11.829C16.6373 12.319 16.551 12.872 16.551 13.488C16.551 14.1133 16.6397 14.671 16.817 15.161C16.999 15.651 17.244 16.0663 17.552 16.407C17.8647 16.743 18.231 16.9997 18.651 17.177C19.0757 17.3543 19.533 17.443 20.023 17.443C20.3217 17.443 20.59 17.4267 20.828 17.394C21.0707 17.3567 21.2923 17.3007 21.493 17.226C21.6983 17.1513 21.8873 17.058 22.06 16.946C22.2373 16.8293 22.4123 16.6917 22.585 16.533C22.6643 16.463 22.7437 16.428 22.823 16.428C22.8977 16.428 22.963 16.4583 23.019 16.519L23.558 17.1ZM27.6908 11.297C28.2088 11.297 28.6755 11.3833 29.0908 11.556C29.5062 11.7287 29.8608 11.9737 30.1548 12.291C30.4488 12.6083 30.6728 12.9933 30.8268 13.446C30.9855 13.894 31.0648 14.3957 31.0648 14.951C31.0648 15.511 30.9855 16.015 30.8268 16.463C30.6728 16.911 30.4488 17.2937 30.1548 17.611C29.8608 17.9283 29.5062 18.1733 29.0908 18.346C28.6755 18.514 28.2088 18.598 27.6908 18.598C27.1682 18.598 26.6968 18.514 26.2768 18.346C25.8615 18.1733 25.5068 17.9283 25.2128 17.611C24.9188 17.2937 24.6925 16.911 24.5338 16.463C24.3798 16.015 24.3028 15.511 24.3028 14.951C24.3028 14.3957 24.3798 13.894 24.5338 13.446C24.6925 12.9933 24.9188 12.6083 25.2128 12.291C25.5068 11.9737 25.8615 11.7287 26.2768 11.556C26.6968 11.3833 27.1682 11.297 27.6908 11.297ZM27.6908 17.625C28.3908 17.625 28.9135 17.3917 29.2588 16.925C29.6042 16.4537 29.7768 15.798 29.7768 14.958C29.7768 14.1133 29.6042 13.4553 29.2588 12.984C28.9135 12.5127 28.3908 12.277 27.6908 12.277C27.3362 12.277 27.0258 12.3377 26.7598 12.459C26.4985 12.5803 26.2792 12.7553 26.1018 12.984C25.9292 13.2127 25.7985 13.495 25.7098 13.831C25.6258 14.1623 25.5838 14.538 25.5838 14.958C25.5838 15.798 25.7565 16.4537 26.1018 16.925C26.4518 17.3917 26.9815 17.625 27.6908 17.625ZM33.8982 8.189V14.258H34.2202C34.3135 14.258 34.3905 14.2463 34.4512 14.223C34.5165 14.195 34.5842 14.1413 34.6542 14.062L36.8942 11.661C36.9595 11.5817 37.0272 11.521 37.0972 11.479C37.1719 11.4323 37.2699 11.409 37.3912 11.409H38.5182L35.9072 14.188C35.7812 14.3467 35.6459 14.4703 35.5012 14.559C35.5852 14.615 35.6599 14.6803 35.7252 14.755C35.7952 14.825 35.8605 14.9067 35.9212 15L38.6932 18.5H37.5802C37.4729 18.5 37.3795 18.4837 37.3002 18.451C37.2255 18.4137 37.1602 18.3483 37.1042 18.255L34.7732 15.35C34.7032 15.252 34.6332 15.189 34.5632 15.161C34.4979 15.1283 34.3952 15.112 34.2552 15.112H33.8982V18.5H32.6452V8.189H33.8982ZM48.4928 14.776L46.9178 10.695C46.8711 10.5737 46.8221 10.4337 46.7708 10.275C46.7194 10.1117 46.6704 9.939 46.6238 9.757C46.5258 10.135 46.4254 10.45 46.3228 10.702L44.7478 14.776H48.4928ZM51.3208 18.5H50.2708C50.1494 18.5 50.0514 18.4697 49.9768 18.409C49.9021 18.3483 49.8461 18.2713 49.8088 18.178L48.8708 15.756H44.3698L43.4318 18.178C43.4038 18.262 43.3501 18.3367 43.2708 18.402C43.1914 18.4673 43.0934 18.5 42.9768 18.5H41.9268L45.9378 8.469H47.3098L51.3208 18.5ZM57.09 12.669C57.0526 12.7203 57.0153 12.76 56.978 12.788C56.9406 12.816 56.8893 12.83 56.824 12.83C56.754 12.83 56.677 12.802 56.593 12.746C56.509 12.6853 56.404 12.62 56.278 12.55C56.1566 12.48 56.005 12.417 55.823 12.361C55.6456 12.3003 55.4263 12.27 55.165 12.27C54.815 12.27 54.507 12.333 54.241 12.459C53.975 12.5803 53.751 12.7577 53.569 12.991C53.3916 13.2243 53.2563 13.5067 53.163 13.838C53.0743 14.1693 53.03 14.5403 53.03 14.951C53.03 15.3803 53.079 15.763 53.177 16.099C53.275 16.4303 53.4126 16.7103 53.59 16.939C53.772 17.163 53.989 17.3357 54.241 17.457C54.4976 17.5737 54.7846 17.632 55.102 17.632C55.4053 17.632 55.655 17.597 55.851 17.527C56.047 17.4523 56.208 17.3707 56.334 17.282C56.4646 17.1933 56.572 17.114 56.656 17.044C56.7446 16.9693 56.831 16.932 56.915 16.932C57.0176 16.932 57.097 16.9717 57.153 17.051L57.503 17.506C57.349 17.6973 57.174 17.8607 56.978 17.996C56.782 18.1313 56.5696 18.2457 56.341 18.339C56.117 18.4277 55.8813 18.493 55.634 18.535C55.3866 18.577 55.1346 18.598 54.878 18.598C54.4346 18.598 54.0216 18.5163 53.639 18.353C53.261 18.1897 52.932 17.954 52.652 17.646C52.372 17.3333 52.1526 16.9507 51.994 16.498C51.8353 16.0453 51.756 15.5297 51.756 14.951C51.756 14.4237 51.8283 13.936 51.973 13.488C52.1223 13.04 52.337 12.655 52.617 12.333C52.9016 12.0063 53.2493 11.752 53.66 11.57C54.0753 11.388 54.5513 11.297 55.088 11.297C55.5873 11.297 56.026 11.3787 56.404 11.542C56.7866 11.7007 57.125 11.927 57.419 12.221L57.09 12.669ZM60.1565 11.409V18.5H58.9105V11.409H60.1565ZM60.4225 9.183C60.4225 9.30433 60.3968 9.41867 60.3455 9.526C60.2988 9.62867 60.2335 9.722 60.1495 9.806C60.0702 9.88533 59.9745 9.94833 59.8625 9.995C59.7552 10.0417 59.6408 10.065 59.5195 10.065C59.3982 10.065 59.2838 10.0417 59.1765 9.995C59.0738 9.94833 58.9828 9.88533 58.9035 9.806C58.8242 9.722 58.7612 9.62867 58.7145 9.526C58.6678 9.41867 58.6445 9.30433 58.6445 9.183C58.6445 9.06167 58.6678 8.94733 58.7145 8.84C58.7612 8.728 58.8242 8.63233 58.9035 8.553C58.9828 8.469 59.0738 8.40367 59.1765 8.357C59.2838 8.31033 59.3982 8.287 59.5195 8.287C59.6408 8.287 59.7552 8.31033 59.8625 8.357C59.9745 8.40367 60.0702 8.469 60.1495 8.553C60.2335 8.63233 60.2988 8.728 60.3455 8.84C60.3968 8.94733 60.4225 9.06167 60.4225 9.183ZM63.4918 8.189V18.5H62.2458V8.189H63.4918Z" fill="white"/>
</svg>
