<svg width="18" height="18" viewBox="0 0 18 18" fill="none" xmlns="http://www.w3.org/2000/svg">
<mask id="path-1-inside-1_277_531" fill="white">
<path fill-rule="evenodd" clip-rule="evenodd" d="M0 4C0 1.79086 1.79086 0 4 0H14C16.2091 0 18 1.79086 18 4V14C18 16.2091 16.2091 18 14 18H4C1.79086 18 0 16.2091 0 14V4ZM6.34116 4.13447C6.54303 4.32289 6.55394 4.63928 6.36553 4.84116L4.63106 6.69952C4.23572 7.1231 3.56428 7.1231 3.16894 6.69952L2.63447 6.12687C2.44606 5.925 2.45697 5.6086 2.65884 5.42019C2.86072 5.23177 3.17711 5.24268 3.36553 5.44456L3.9 6.0172L5.63447 4.15884C5.82289 3.95697 6.13928 3.94606 6.34116 4.13447ZM6.36553 11.5912C6.55394 11.3893 6.54303 11.0729 6.34116 10.8845C6.13928 10.6961 5.82289 10.707 5.63447 10.9088L3.9 12.7672L3.36553 12.1946C3.17711 11.9927 2.86072 11.9818 2.65884 12.1702C2.45697 12.3586 2.44606 12.675 2.63447 12.8769L3.16894 13.4495C3.56428 13.8731 4.23572 13.8731 4.63106 13.4495L6.36553 11.5912ZM8.5 5.25C8.5 4.97386 8.72386 4.75 9 4.75H15C15.2761 4.75 15.5 4.97386 15.5 5.25C15.5 5.52614 15.2761 5.75 15 5.75H9C8.72386 5.75 8.5 5.52614 8.5 5.25ZM9 11.875C8.72386 11.875 8.5 12.0989 8.5 12.375C8.5 12.6511 8.72386 12.875 9 12.875H15C15.2761 12.875 15.5 12.6511 15.5 12.375C15.5 12.0989 15.2761 11.875 15 11.875H9Z"/>
</mask>
<path fill-rule="evenodd" clip-rule="evenodd" d="M0 4C0 1.79086 1.79086 0 4 0H14C16.2091 0 18 1.79086 18 4V14C18 16.2091 16.2091 18 14 18H4C1.79086 18 0 16.2091 0 14V4ZM6.34116 4.13447C6.54303 4.32289 6.55394 4.63928 6.36553 4.84116L4.63106 6.69952C4.23572 7.1231 3.56428 7.1231 3.16894 6.69952L2.63447 6.12687C2.44606 5.925 2.45697 5.6086 2.65884 5.42019C2.86072 5.23177 3.17711 5.24268 3.36553 5.44456L3.9 6.0172L5.63447 4.15884C5.82289 3.95697 6.13928 3.94606 6.34116 4.13447ZM6.36553 11.5912C6.55394 11.3893 6.54303 11.0729 6.34116 10.8845C6.13928 10.6961 5.82289 10.707 5.63447 10.9088L3.9 12.7672L3.36553 12.1946C3.17711 11.9927 2.86072 11.9818 2.65884 12.1702C2.45697 12.3586 2.44606 12.675 2.63447 12.8769L3.16894 13.4495C3.56428 13.8731 4.23572 13.8731 4.63106 13.4495L6.36553 11.5912ZM8.5 5.25C8.5 4.97386 8.72386 4.75 9 4.75H15C15.2761 4.75 15.5 4.97386 15.5 5.25C15.5 5.52614 15.2761 5.75 15 5.75H9C8.72386 5.75 8.5 5.52614 8.5 5.25ZM9 11.875C8.72386 11.875 8.5 12.0989 8.5 12.375C8.5 12.6511 8.72386 12.875 9 12.875H15C15.2761 12.875 15.5 12.6511 15.5 12.375C15.5 12.0989 15.2761 11.875 15 11.875H9Z" fill="white"/>
<path d="M6.36553 4.84116L7.09658 5.52348L7.09658 5.52348L6.36553 4.84116ZM4.63106 6.69952L5.36211 7.38184L4.63106 6.69952ZM3.16894 6.69952L3.9 6.0172H3.9L3.16894 6.69952ZM2.63447 6.12687L3.36553 5.44456L2.63447 6.12687ZM2.65884 5.42019L3.34116 6.15124H3.34116L2.65884 5.42019ZM3.36553 5.44456L2.63447 6.12687L2.63447 6.12687L3.36553 5.44456ZM3.9 6.0172L3.16894 6.69952L3.9 7.4828L4.63105 6.69952L3.9 6.0172ZM5.63447 4.15884L6.36553 4.84116L6.36553 4.84116L5.63447 4.15884ZM6.34116 10.8845L7.02348 10.1534L7.02348 10.1534L6.34116 10.8845ZM6.36553 11.5912L5.63447 10.9088L5.63447 10.9088L6.36553 11.5912ZM5.63447 10.9088L6.36553 11.5912L6.36553 11.5912L5.63447 10.9088ZM3.9 12.7672L3.16894 13.4495L3.9 14.2328L4.63105 13.4495L3.9 12.7672ZM3.36553 12.1946L2.63447 12.8769H2.63447L3.36553 12.1946ZM2.65884 12.1702L3.34116 12.9012L3.34116 12.9012L2.65884 12.1702ZM2.63447 12.8769L3.36553 12.1946L3.36553 12.1946L2.63447 12.8769ZM3.16894 13.4495L3.9 12.7672L3.16894 13.4495ZM4.63106 13.4495L3.9 12.7672L3.9 12.7672L4.63106 13.4495ZM4 -1C1.23858 -1 -1 1.23858 -1 4H1C1 2.34315 2.34315 1 4 1V-1ZM14 -1H4V1H14V-1ZM19 4C19 1.23858 16.7614 -1 14 -1V1C15.6569 1 17 2.34315 17 4H19ZM19 14V4H17V14H19ZM14 19C16.7614 19 19 16.7614 19 14H17C17 15.6569 15.6569 17 14 17V19ZM4 19H14V17H4V19ZM-1 14C-1 16.7614 1.23858 19 4 19V17C2.34315 17 1 15.6569 1 14H-1ZM-1 4V14H1V4H-1ZM7.09658 5.52348C7.66183 4.91785 7.6291 3.96867 7.02348 3.40342L5.65884 4.86553C5.45696 4.67711 5.44606 4.36072 5.63447 4.15884L7.09658 5.52348ZM5.36211 7.38184L7.09658 5.52348L5.63447 4.15884L3.9 6.0172L5.36211 7.38184ZM2.43789 7.38184C3.22856 8.22899 4.57143 8.22899 5.36211 7.38184L3.9 6.0172V6.0172L2.43789 7.38184ZM1.90342 6.80919L2.43789 7.38184L3.9 6.0172L3.36553 5.44456L1.90342 6.80919ZM1.97652 4.68913C1.3709 5.25438 1.33817 6.20357 1.90342 6.80919L3.36553 5.44456C3.55394 5.64643 3.54303 5.96282 3.34116 6.15124L1.97652 4.68913ZM4.09658 4.76224C3.53133 4.15661 2.58215 4.12388 1.97652 4.68913L3.34116 6.15124C3.13928 6.33966 2.82289 6.32875 2.63447 6.12687L4.09658 4.76224ZM4.63105 5.33489L4.09658 4.76224L2.63447 6.12687L3.16894 6.69952L4.63105 5.33489ZM4.90342 3.47652L3.16894 5.33489L4.63105 6.69952L6.36553 4.84116L4.90342 3.47652ZM7.02348 3.40342C6.41785 2.83817 5.46867 2.8709 4.90342 3.47652L6.36553 4.84116C6.17711 5.04304 5.86072 5.05394 5.65884 4.86553L7.02348 3.40342ZM5.65884 11.6155C5.45697 11.4271 5.44605 11.1107 5.63447 10.9088L7.09658 12.2735C7.66183 11.6679 7.6291 10.7187 7.02348 10.1534L5.65884 11.6155ZM6.36553 11.5912C6.17711 11.793 5.86072 11.8039 5.65884 11.6155L7.02348 10.1534C6.41785 9.58817 5.46867 9.6209 4.90342 10.2265L6.36553 11.5912ZM4.63105 13.4495L6.36553 11.5912L4.90342 10.2265L3.16894 12.0849L4.63105 13.4495ZM2.63447 12.8769L3.16894 13.4495L4.63106 12.0849L4.09658 11.5122L2.63447 12.8769ZM3.34116 12.9012C3.13928 13.0897 2.82289 13.0787 2.63447 12.8769L4.09658 11.5122C3.53133 10.9066 2.58215 10.8739 1.97652 11.4391L3.34116 12.9012ZM3.36553 12.1946C3.55394 12.3964 3.54303 12.7128 3.34116 12.9012L1.97652 11.4391C1.3709 12.0044 1.33817 12.9536 1.90342 13.5592L3.36553 12.1946ZM3.9 12.7672L3.36553 12.1946L1.90342 13.5592L2.43789 14.1318L3.9 12.7672ZM3.9 12.7672H3.9L2.43789 14.1318C3.22856 14.979 4.57144 14.979 5.36211 14.1318L3.9 12.7672ZM5.63447 10.9088L3.9 12.7672L5.36211 14.1318L7.09658 12.2735L5.63447 10.9088ZM9 3.75C8.17157 3.75 7.5 4.42157 7.5 5.25H9.5C9.5 5.52614 9.27614 5.75 9 5.75V3.75ZM15 3.75H9V5.75H15V3.75ZM16.5 5.25C16.5 4.42157 15.8284 3.75 15 3.75V5.75C14.7239 5.75 14.5 5.52614 14.5 5.25H16.5ZM15 6.75C15.8284 6.75 16.5 6.07843 16.5 5.25H14.5C14.5 4.97386 14.7239 4.75 15 4.75V6.75ZM9 6.75H15V4.75H9V6.75ZM7.5 5.25C7.5 6.07843 8.17157 6.75 9 6.75V4.75C9.27614 4.75 9.5 4.97386 9.5 5.25H7.5ZM9.5 12.375C9.5 12.6511 9.27614 12.875 9 12.875V10.875C8.17157 10.875 7.5 11.5466 7.5 12.375H9.5ZM9 11.875C9.27614 11.875 9.5 12.0989 9.5 12.375H7.5C7.5 13.2034 8.17157 13.875 9 13.875V11.875ZM15 11.875H9V13.875H15V11.875ZM14.5 12.375C14.5 12.0989 14.7239 11.875 15 11.875V13.875C15.8284 13.875 16.5 13.2034 16.5 12.375H14.5ZM15 12.875C14.7239 12.875 14.5 12.6511 14.5 12.375H16.5C16.5 11.5466 15.8284 10.875 15 10.875V12.875ZM9 12.875H15V10.875H9V12.875Z" fill="white" mask="url(#path-1-inside-1_277_531)"/>
</svg>
