<svg width="24" height="24" viewBox="0 0 24 24" fill="none" xmlns="http://www.w3.org/2000/svg">
<mask id="path-1-inside-1_586_44595" fill="white">
<path fill-rule="evenodd" clip-rule="evenodd" d="M0 4C0 1.79086 1.79086 0 4 0H20C22.2091 0 24 1.79086 24 4V20C24 22.2091 22.2091 24 20 24H4C1.79086 24 0 22.2091 0 20V4ZM8.34116 5.63447C8.54303 5.82289 8.55394 6.13928 8.36553 6.34116L5.93106 8.94952C5.53572 9.3731 4.86428 9.3731 4.46894 8.94952L3.63447 8.05544C3.44606 7.85357 3.45697 7.53718 3.65884 7.34876C3.86072 7.16034 4.17711 7.17125 4.36553 7.37313L5.2 8.2672L7.63447 5.65884C7.82289 5.45697 8.13928 5.44606 8.34116 5.63447ZM8.36553 15.3412C8.55394 15.1393 8.54303 14.8229 8.34116 14.6345C8.13928 14.4461 7.82289 14.457 7.63447 14.6588L5.2 17.2672L4.36553 16.3731C4.17711 16.1713 3.86072 16.1603 3.65884 16.3488C3.45697 16.5372 3.44606 16.8536 3.63447 17.0554L4.46894 17.9495C4.86428 18.3731 5.53572 18.3731 5.93106 17.9495L8.36553 15.3412ZM11.5 7C11.5 6.72386 11.7239 6.5 12 6.5H20C20.2761 6.5 20.5 6.72386 20.5 7C20.5 7.27614 20.2761 7.5 20 7.5H12C11.7239 7.5 11.5 7.27614 11.5 7ZM12 16C11.7239 16 11.5 16.2239 11.5 16.5C11.5 16.7761 11.7239 17 12 17H20C20.2761 17 20.5 16.7761 20.5 16.5C20.5 16.2239 20.2761 16 20 16H12Z"/>
</mask>
<path fill-rule="evenodd" clip-rule="evenodd" d="M0 4C0 1.79086 1.79086 0 4 0H20C22.2091 0 24 1.79086 24 4V20C24 22.2091 22.2091 24 20 24H4C1.79086 24 0 22.2091 0 20V4ZM8.34116 5.63447C8.54303 5.82289 8.55394 6.13928 8.36553 6.34116L5.93106 8.94952C5.53572 9.3731 4.86428 9.3731 4.46894 8.94952L3.63447 8.05544C3.44606 7.85357 3.45697 7.53718 3.65884 7.34876C3.86072 7.16034 4.17711 7.17125 4.36553 7.37313L5.2 8.2672L7.63447 5.65884C7.82289 5.45697 8.13928 5.44606 8.34116 5.63447ZM8.36553 15.3412C8.55394 15.1393 8.54303 14.8229 8.34116 14.6345C8.13928 14.4461 7.82289 14.457 7.63447 14.6588L5.2 17.2672L4.36553 16.3731C4.17711 16.1713 3.86072 16.1603 3.65884 16.3488C3.45697 16.5372 3.44606 16.8536 3.63447 17.0554L4.46894 17.9495C4.86428 18.3731 5.53572 18.3731 5.93106 17.9495L8.36553 15.3412ZM11.5 7C11.5 6.72386 11.7239 6.5 12 6.5H20C20.2761 6.5 20.5 6.72386 20.5 7C20.5 7.27614 20.2761 7.5 20 7.5H12C11.7239 7.5 11.5 7.27614 11.5 7ZM12 16C11.7239 16 11.5 16.2239 11.5 16.5C11.5 16.7761 11.7239 17 12 17H20C20.2761 17 20.5 16.7761 20.5 16.5C20.5 16.2239 20.2761 16 20 16H12Z" fill="#212121"/>
<path d="M8.36553 6.34116L9.09658 7.02348L9.09659 7.02348L8.36553 6.34116ZM8.34116 5.63447L9.02348 4.90342L9.02348 4.90342L8.34116 5.63447ZM5.93106 8.94952L5.2 8.2672L5.2 8.2672L5.93106 8.94952ZM4.46894 8.94952L3.73789 9.63184L4.46894 8.94952ZM3.63447 8.05544L4.36553 7.37313L3.63447 8.05544ZM3.65884 7.34876L4.34116 8.07981L4.34116 8.07981L3.65884 7.34876ZM4.36553 7.37313L5.09658 6.69081L4.36553 7.37313ZM5.2 8.2672L4.46894 8.94952L5.2 9.7328L5.93106 8.94952L5.2 8.2672ZM7.63447 5.65884L6.90342 4.97652L7.63447 5.65884ZM8.34116 14.6345L9.02348 13.9034L9.02348 13.9034L8.34116 14.6345ZM8.36553 15.3412L7.63447 14.6588L8.36553 15.3412ZM7.63447 14.6588L8.36553 15.3412L8.36553 15.3412L7.63447 14.6588ZM5.2 17.2672L4.46894 17.9495L5.2 18.7328L5.93106 17.9495L5.2 17.2672ZM4.36553 16.3731L3.63447 17.0554H3.63447L4.36553 16.3731ZM3.65884 16.3488L4.34116 17.0798L4.34116 17.0798L3.65884 16.3488ZM3.63447 17.0554L2.90342 17.7378H2.90342L3.63447 17.0554ZM4.46894 17.9495L3.73789 18.6318L3.73789 18.6318L4.46894 17.9495ZM5.93106 17.9495L5.2 17.2672H5.2L5.93106 17.9495ZM4 -1C1.23858 -1 -1 1.23858 -1 4H1C1 2.34315 2.34315 1 4 1V-1ZM20 -1H4V1H20V-1ZM25 4C25 1.23858 22.7614 -1 20 -1V1C21.6569 1 23 2.34315 23 4H25ZM25 20V4H23V20H25ZM20 25C22.7614 25 25 22.7614 25 20H23C23 21.6569 21.6569 23 20 23V25ZM4 25H20V23H4V25ZM-1 20C-1 22.7614 1.23858 25 4 25V23C2.34315 23 1 21.6569 1 20H-1ZM-1 4V20H1V4H-1ZM9.09659 7.02348C9.66183 6.41785 9.6291 5.46867 9.02348 4.90342L7.65884 6.36553C7.45696 6.17711 7.44606 5.86072 7.63447 5.65884L9.09659 7.02348ZM6.66211 9.63184L9.09658 7.02348L7.63447 5.65884L5.2 8.2672L6.66211 9.63184ZM3.73789 9.63184C4.52856 10.479 5.87144 10.479 6.66211 9.63184L5.2 8.2672L5.2 8.2672L3.73789 9.63184ZM2.90342 8.73776L3.73789 9.63184L5.2 8.2672L4.36553 7.37313L2.90342 8.73776ZM2.97652 6.6177C2.3709 7.18295 2.33817 8.13214 2.90342 8.73776L4.36553 7.37313C4.55394 7.575 4.54303 7.8914 4.34116 8.07981L2.97652 6.6177ZM5.09658 6.69081C4.53133 6.08518 3.58215 6.05245 2.97652 6.6177L4.34116 8.07981C4.13928 8.26823 3.82289 8.25732 3.63447 8.05544L5.09658 6.69081ZM5.93106 7.58489L5.09658 6.69081L3.63447 8.05544L4.46894 8.94952L5.93106 7.58489ZM6.90342 4.97652L4.46894 7.58489L5.93106 8.94952L8.36553 6.34116L6.90342 4.97652ZM9.02348 4.90342C8.41785 4.33817 7.46867 4.3709 6.90342 4.97652L8.36553 6.34116C8.17711 6.54304 7.86072 6.55394 7.65884 6.36553L9.02348 4.90342ZM7.65884 15.3655C7.45697 15.1771 7.44605 14.8607 7.63447 14.6588L9.09658 16.0235C9.66183 15.4179 9.6291 14.4687 9.02348 13.9034L7.65884 15.3655ZM8.36553 15.3412C8.17711 15.543 7.86072 15.5539 7.65884 15.3655L9.02348 13.9034C8.41785 13.3382 7.46867 13.3709 6.90342 13.9765L8.36553 15.3412ZM5.93106 17.9495L8.36553 15.3412L6.90342 13.9765L4.46894 16.5849L5.93106 17.9495ZM3.63447 17.0554L4.46894 17.9495L5.93106 16.5849L5.09658 15.6908L3.63447 17.0554ZM4.34116 17.0798C4.13928 17.2682 3.82289 17.2573 3.63447 17.0554L5.09658 15.6908C4.53133 15.0852 3.58215 15.0525 2.97652 15.6177L4.34116 17.0798ZM4.36553 16.3731C4.55394 16.575 4.54304 16.8914 4.34116 17.0798L2.97653 15.6177C2.37089 16.183 2.33817 17.1321 2.90342 17.7378L4.36553 16.3731ZM5.2 17.2672L4.36553 16.3731L2.90342 17.7378L3.73789 18.6318L5.2 17.2672ZM5.2 17.2672V17.2672L3.73789 18.6318C4.52856 19.479 5.87143 19.479 6.66211 18.6318L5.2 17.2672ZM7.63447 14.6588L5.2 17.2672L6.66211 18.6318L9.09658 16.0235L7.63447 14.6588ZM12 5.5C11.1716 5.5 10.5 6.17157 10.5 7H12.5C12.5 7.27614 12.2761 7.5 12 7.5V5.5ZM20 5.5H12V7.5H20V5.5ZM21.5 7C21.5 6.17157 20.8284 5.5 20 5.5V7.5C19.7239 7.5 19.5 7.27614 19.5 7H21.5ZM20 8.5C20.8284 8.5 21.5 7.82843 21.5 7H19.5C19.5 6.72386 19.7239 6.5 20 6.5V8.5ZM12 8.5H20V6.5H12V8.5ZM10.5 7C10.5 7.82843 11.1716 8.5 12 8.5V6.5C12.2761 6.5 12.5 6.72386 12.5 7H10.5ZM12.5 16.5C12.5 16.7761 12.2761 17 12 17V15C11.1716 15 10.5 15.6716 10.5 16.5H12.5ZM12 16C12.2761 16 12.5 16.2239 12.5 16.5H10.5C10.5 17.3284 11.1716 18 12 18V16ZM20 16H12V18H20V16ZM19.5 16.5C19.5 16.2239 19.7239 16 20 16V18C20.8284 18 21.5 17.3284 21.5 16.5H19.5ZM20 17C19.7239 17 19.5 16.7761 19.5 16.5H21.5C21.5 15.6716 20.8284 15 20 15V17ZM12 17H20V15H12V17Z" fill="#212121" mask="url(#path-1-inside-1_586_44595)"/>
</svg>
