<svg width="10" height="12" viewBox="0 0 10 12" fill="none" xmlns="http://www.w3.org/2000/svg">
<path d="M1.35714 5.14284C1.83053 5.14284 2.21429 4.75909 2.21429 4.2857C2.21429 3.81231 1.83053 3.42856 1.35714 3.42856C0.883756 3.42856 0.5 3.81231 0.5 4.2857C0.5 4.75909 0.883756 5.14284 1.35714 5.14284Z" fill="#212121"/>
<path d="M1.35714 1.71429C1.83053 1.71429 2.21429 1.33053 2.21429 0.857143C2.21429 0.383756 1.83053 0 1.35714 0C0.883756 0 0.5 0.383756 0.5 0.857143C0.5 1.33053 0.883756 1.71429 1.35714 1.71429Z" fill="#212121"/>
<path d="M1.35714 8.57143C1.83053 8.57143 2.21429 8.18768 2.21429 7.71429C2.21429 7.2409 1.83053 6.85715 1.35714 6.85715C0.883756 6.85715 0.5 7.2409 0.5 7.71429C0.5 8.18768 0.883756 8.57143 1.35714 8.57143Z" fill="#212121"/>
<path d="M1.35714 12C1.83053 12 2.21429 11.6162 2.21429 11.1428C2.21429 10.6695 1.83053 10.2857 1.35714 10.2857C0.883756 10.2857 0.5 10.6695 0.5 11.1428C0.5 11.6162 0.883756 12 1.35714 12Z" fill="#212121"/>
<path d="M1.35718 0.857147L1.35718 11.5714" stroke="#212121" stroke-width="0.5" stroke-linecap="round"/>
<path d="M3.92859 0.857147H9.07145" stroke="#212121" stroke-linecap="round"/>
<path d="M3.92859 4.28571H9.07145" stroke="#212121" stroke-linecap="round"/>
<path d="M3.92859 7.71429H9.07145" stroke="#212121" stroke-linecap="round"/>
<path d="M3.92859 11.1429H9.07145" stroke="#212121" stroke-linecap="round"/>
</svg>
