<svg width="26" height="22" viewBox="0 0 26 22" fill="none" xmlns="http://www.w3.org/2000/svg">
<path d="M18.4545 21V18.7778C18.4545 17.599 17.9948 16.4686 17.1765 15.6351C16.3581 14.8016 15.2482 14.3333 14.0909 14.3333H5.36364C4.20633 14.3333 3.09642 14.8016 2.27808 15.6351C1.45974 16.4686 1 17.599 1 18.7778V21" stroke="#212121" stroke-linecap="round" stroke-linejoin="round"/>
<path d="M9.72728 9.88889C12.1373 9.88889 14.0909 7.89904 14.0909 5.44444C14.0909 2.98985 12.1373 1 9.72728 1C7.31731 1 5.36365 2.98985 5.36365 5.44444C5.36365 7.89904 7.31731 9.88889 9.72728 9.88889Z" stroke="#212121" stroke-linecap="round" stroke-linejoin="round"/>
<path d="M25 21V18.7778C24.9993 17.793 24.6775 16.8364 24.0851 16.0581C23.4928 15.2798 22.6634 14.724 21.7273 14.4778" stroke="#212121" stroke-linecap="round" stroke-linejoin="round"/>
<path d="M17.3636 1.14445C18.3023 1.38923 19.1342 1.94523 19.7283 2.7248C20.3225 3.50436 20.6449 4.46315 20.6449 5.45001C20.6449 6.43686 20.3225 7.39565 19.7283 8.17522C19.1342 8.95478 18.3023 9.51079 17.3636 9.75556" stroke="#212121" stroke-linecap="round" stroke-linejoin="round"/>
</svg>
