<svg width="24" height="21" viewBox="0 0 24 21" fill="none" xmlns="http://www.w3.org/2000/svg">
<mask id="path-1-inside-1_743_59737" fill="white">
<path d="M17.4545 21V18.7778C17.4545 17.599 16.9948 16.4686 16.1765 15.6351C15.3581 14.8016 14.2482 14.3333 13.0909 14.3333H4.36364C3.20633 14.3333 2.09642 14.8016 1.27808 15.6351C0.459739 16.4686 0 17.599 0 18.7778V21"/>
</mask>
<path d="M17.4545 21V18.7778C17.4545 17.599 16.9948 16.4686 16.1765 15.6351C15.3581 14.8016 14.2482 14.3333 13.0909 14.3333H4.36364C3.20633 14.3333 2.09642 14.8016 1.27808 15.6351C0.459739 16.4686 0 17.599 0 18.7778V21" fill="#212121"/>
<path d="M16.4545 21C16.4545 21.5523 16.9023 22 17.4545 22C18.0068 22 18.4545 21.5523 18.4545 21H16.4545ZM13.0909 14.3333V13.3333V14.3333ZM4.36364 14.3333V13.3333V14.3333ZM0 18.7778H-1H0ZM-1 21C-1 21.5523 -0.552285 22 0 22C0.552285 22 1 21.5523 1 21H-1ZM18.4545 21V18.7778H16.4545V21H18.4545ZM18.4545 18.7778C18.4545 17.3397 17.8938 15.9569 16.89 14.9345L15.4629 16.3357C16.0958 16.9803 16.4545 17.8584 16.4545 18.7778H18.4545ZM16.89 14.9345C15.8856 13.9115 14.5194 13.3333 13.0909 13.3333V15.3333C13.977 15.3333 14.8306 15.6917 15.4629 16.3357L16.89 14.9345ZM13.0909 13.3333H4.36364V15.3333H13.0909V13.3333ZM4.36364 13.3333C2.93513 13.3333 1.56892 13.9115 0.564516 14.9345L1.99164 16.3357C2.62392 15.6917 3.47753 15.3333 4.36364 15.3333V13.3333ZM0.564516 14.9345C-0.439278 15.9569 -1 17.3397 -1 18.7778H1C1 17.8584 1.35876 16.9803 1.99164 16.3357L0.564516 14.9345ZM-1 18.7778V21H1V18.7778H-1Z" fill="#212121" mask="url(#path-1-inside-1_743_59737)"/>
<path d="M8.72728 9.88889C11.1373 9.88889 13.0909 7.89904 13.0909 5.44444C13.0909 2.98985 11.1373 1 8.72728 1C6.31731 1 4.36365 2.98985 4.36365 5.44444C4.36365 7.89904 6.31731 9.88889 8.72728 9.88889Z" fill="#212121" stroke="#212121" stroke-linecap="round" stroke-linejoin="round"/>
<mask id="path-4-inside-2_743_59737" fill="white">
<path d="M24 21V18.7778C23.9993 17.793 23.6775 16.8364 23.0851 16.0581C22.4928 15.2798 21.6634 14.724 20.7273 14.4778"/>
</mask>
<path d="M24 21V18.7778C23.9993 17.793 23.6775 16.8364 23.0851 16.0581C22.4928 15.2798 21.6634 14.724 20.7273 14.4778" fill="#212121"/>
<path d="M23 21C23 21.5523 23.4477 22 24 22C24.5523 22 25 21.5523 25 21H23ZM24 18.7778H25L25 18.7771L24 18.7778ZM20.9816 13.5107C20.4475 13.3702 19.9006 13.6893 19.7602 14.2235C19.6197 14.7576 19.9388 15.3044 20.473 15.4449L20.9816 13.5107ZM25 21V18.7778H23V21H25ZM25 18.7771C24.9991 17.5754 24.6066 16.406 23.8809 15.4525L22.2894 16.6638C22.7484 17.2669 22.9995 18.0107 23 18.7785L25 18.7771ZM23.8809 15.4525C23.155 14.4987 22.1359 13.8142 20.9816 13.5107L20.473 15.4449C21.1909 15.6337 21.8306 16.061 22.2894 16.6638L23.8809 15.4525Z" fill="#212121" mask="url(#path-4-inside-2_743_59737)"/>
<mask id="path-6-inside-3_743_59737" fill="white">
<path d="M16.3636 1.14445C17.3023 1.38923 18.1342 1.94523 18.7283 2.7248C19.3225 3.50436 19.6449 4.46315 19.6449 5.45001C19.6449 6.43686 19.3225 7.39565 18.7283 8.17522C18.1342 8.95478 17.3023 9.51078 16.3636 9.75556"/>
</mask>
<path d="M16.3636 1.14445C17.3023 1.38923 18.1342 1.94523 18.7283 2.7248C19.3225 3.50436 19.6449 4.46315 19.6449 5.45001C19.6449 6.43686 19.3225 7.39565 18.7283 8.17522C18.1342 8.95478 17.3023 9.51078 16.3636 9.75556" fill="#212121"/>
<path d="M16.616 0.176813C16.0816 0.0374483 15.5354 0.357697 15.396 0.892109C15.2566 1.42652 15.5769 1.97272 16.1113 2.11209L16.616 0.176813ZM19.6449 5.45001H20.6449H19.6449ZM16.1113 8.78792C15.5769 8.92729 15.2566 9.47349 15.396 10.0079C15.5354 10.5423 16.0816 10.8626 16.616 10.7232L16.1113 8.78792ZM16.1113 2.11209C16.8312 2.29982 17.4729 2.72717 17.933 3.33094L19.5237 2.11865C18.7956 1.16329 17.7734 0.478641 16.616 0.176813L16.1113 2.11209ZM17.933 3.33094C18.3934 3.93503 18.6449 4.68053 18.6449 5.45001H20.6449C20.6449 4.24577 20.2515 3.07369 19.5237 2.11865L17.933 3.33094ZM18.6449 5.45001C18.6449 6.21948 18.3934 6.96498 17.933 7.56907L19.5237 8.78136C20.2515 7.82632 20.6449 6.65425 20.6449 5.45001H18.6449ZM17.933 7.56907C17.4729 8.17285 16.8312 8.60019 16.1113 8.78792L16.616 10.7232C17.7734 10.4214 18.7956 9.73672 19.5237 8.78136L17.933 7.56907Z" fill="#212121" mask="url(#path-6-inside-3_743_59737)"/>
</svg>
