<svg width="20" height="16" viewBox="0 0 20 16" fill="none" xmlns="http://www.w3.org/2000/svg">
<path d="M14.0909 15.5V13.8333C14.0909 12.9493 13.7461 12.1014 13.1324 11.4763C12.5186 10.8512 11.6862 10.5 10.8182 10.5H4.27273C3.40475 10.5 2.57232 10.8512 1.95856 11.4763C1.3448 12.1014 1 12.9493 1 13.8333V15.5" stroke="white" stroke-linecap="round" stroke-linejoin="round"/>
<path d="M7.54543 7.16667C9.35291 7.16667 10.8182 5.67428 10.8182 3.83333C10.8182 1.99238 9.35291 0.5 7.54543 0.5C5.73795 0.5 4.27271 1.99238 4.27271 3.83333C4.27271 5.67428 5.73795 7.16667 7.54543 7.16667Z" stroke="white" stroke-linecap="round" stroke-linejoin="round"/>
<path d="M19 15.5V13.8333C18.9995 13.0948 18.7581 12.3773 18.3139 11.7936C17.8696 11.2099 17.2476 10.793 16.5455 10.6083" stroke="white" stroke-linecap="round" stroke-linejoin="round"/>
<path d="M13.2727 0.608337C13.9767 0.791922 14.6006 1.20892 15.0462 1.7936C15.4918 2.37827 15.7337 3.09736 15.7337 3.8375C15.7337 4.57765 15.4918 5.29674 15.0462 5.88141C14.6006 6.46609 13.9767 6.88309 13.2727 7.06667" stroke="white" stroke-linecap="round" stroke-linejoin="round"/>
</svg>
