<svg width="79" height="79" viewBox="0 0 79 79" fill="none" xmlns="http://www.w3.org/2000/svg">
<path opacity="0.7" d="M78.722 39.361C78.722 61.0995 61.0995 78.722 39.361 78.722C17.6225 78.722 0 61.0995 0 39.361C0 17.6225 17.6225 0 39.361 0C61.0995 0 78.722 17.6225 78.722 39.361ZM7.8722 39.361C7.8722 56.7518 21.9702 70.8498 39.361 70.8498C56.7518 70.8498 70.8498 56.7518 70.8498 39.361C70.8498 21.9702 56.7518 7.8722 39.361 7.8722C21.9702 7.8722 7.8722 21.9702 7.8722 39.361Z" fill="#E0E0E0"/>
<path d="M39.361 3.9361C39.361 1.76225 41.1278 -0.0204102 43.2908 0.196584C51.4515 1.01528 59.1896 4.36872 65.3909 9.83587C72.5805 16.1744 77.2103 24.9185 78.4116 34.4277C79.6129 43.9369 77.3032 53.5577 71.9157 61.4851C67.2689 68.3227 60.6079 73.4952 52.9071 76.3177C50.8661 77.0658 48.7114 75.7785 48.1708 73.6729C47.6302 71.5674 48.9119 69.4451 50.9336 68.6462C56.7825 66.335 61.8361 62.3114 65.4048 57.0603C69.7147 50.7184 71.5625 43.0218 70.6015 35.4144C69.6404 27.807 65.9366 20.8117 60.1849 15.7409C55.4224 11.5422 49.527 8.90189 43.2871 8.11783C41.1302 7.84682 39.361 6.10995 39.361 3.9361Z" fill="#8767FA"/>
<path d="M29.2194 42.0011V38.2171C29.2194 37.8598 29.2434 37.4651 29.2914 37.0331L25.6994 42.0011H29.2194ZM32.3954 42.0011V43.1451C32.3954 43.2518 32.3608 43.3451 32.2914 43.4251C32.2221 43.4998 32.1234 43.5371 31.9954 43.5371H30.9394V46.3611H29.2194V43.5371H24.3394C24.2061 43.5371 24.0888 43.4971 23.9874 43.4171C23.8861 43.3318 23.8221 43.2278 23.7954 43.1051L23.5874 42.1051L29.0674 34.7851H30.9394V42.0011H32.3954ZM36.9807 38.9931L36.5807 39.4891C36.8047 39.3771 37.0447 39.2918 37.3007 39.2331C37.562 39.1691 37.842 39.1371 38.1407 39.1371C38.578 39.1371 39.002 39.2091 39.4127 39.3531C39.8287 39.4971 40.194 39.7158 40.5087 40.0091C40.8234 40.2971 41.0767 40.6571 41.2687 41.0891C41.4607 41.5211 41.5567 42.0251 41.5567 42.6011C41.5567 43.1398 41.458 43.6464 41.2607 44.1211C41.0634 44.5904 40.786 45.0011 40.4287 45.3531C40.0714 45.7051 39.6394 45.9824 39.1327 46.1851C38.6314 46.3878 38.0767 46.4891 37.4687 46.4891C36.85 46.4891 36.2954 46.3904 35.8047 46.1931C35.314 45.9958 34.8954 45.7211 34.5487 45.3691C34.202 45.0118 33.9354 44.5851 33.7487 44.0891C33.5674 43.5878 33.4767 43.0331 33.4767 42.4251C33.4767 41.8811 33.586 41.3238 33.8047 40.7531C34.0287 40.1771 34.3727 39.5798 34.8367 38.9611L37.5967 35.2571C37.6927 35.1291 37.8314 35.0198 38.0127 34.9291C38.1994 34.8384 38.4127 34.7931 38.6527 34.7931H40.4127L36.9807 38.9931ZM37.4287 44.8731C37.7434 44.8731 38.0314 44.8198 38.2927 44.7131C38.5594 44.6064 38.786 44.4571 38.9727 44.2651C39.1647 44.0731 39.314 43.8491 39.4207 43.5931C39.5274 43.3318 39.5807 43.0491 39.5807 42.7451C39.5807 42.4144 39.53 42.1184 39.4287 41.8571C39.3274 41.5904 39.1834 41.3664 38.9967 41.1851C38.81 40.9984 38.586 40.8571 38.3247 40.7611C38.0634 40.6651 37.7754 40.6171 37.4607 40.6171C37.146 40.6171 36.8607 40.6704 36.6047 40.7771C36.3487 40.8838 36.13 41.0331 35.9487 41.2251C35.7674 41.4118 35.626 41.6358 35.5247 41.8971C35.4234 42.1531 35.3727 42.4304 35.3727 42.7291C35.3727 43.0491 35.4154 43.3424 35.5007 43.6091C35.5914 43.8704 35.722 44.0944 35.8927 44.2811C36.0687 44.4678 36.2847 44.6144 36.5407 44.7211C36.7967 44.8224 37.0927 44.8731 37.4287 44.8731ZM48.0459 37.5931C48.0459 38.0304 47.9713 38.4251 47.8219 38.7771C47.6779 39.1291 47.4833 39.4304 47.2379 39.6811C46.9926 39.9264 46.7073 40.1158 46.3819 40.2491C46.0566 40.3824 45.7179 40.4491 45.3659 40.4491C44.9819 40.4491 44.6273 40.3824 44.3019 40.2491C43.9766 40.1158 43.6939 39.9264 43.4539 39.6811C43.2193 39.4304 43.0353 39.1291 42.9019 38.7771C42.7686 38.4251 42.7019 38.0304 42.7019 37.5931C42.7019 37.1451 42.7686 36.7398 42.9019 36.3771C43.0353 36.0144 43.2193 35.7078 43.4539 35.4571C43.6939 35.2064 43.9766 35.0144 44.3019 34.8811C44.6273 34.7424 44.9819 34.6731 45.3659 34.6731C45.7499 34.6731 46.1046 34.7424 46.4299 34.8811C46.7606 35.0144 47.0459 35.2064 47.2859 35.4571C47.5259 35.7078 47.7126 36.0144 47.8459 36.3771C47.9793 36.7398 48.0459 37.1451 48.0459 37.5931ZM46.5259 37.5931C46.5259 37.2838 46.4939 37.0251 46.4299 36.8171C46.3713 36.6091 46.2886 36.4411 46.1819 36.3131C46.0806 36.1851 45.9579 36.0944 45.8139 36.0411C45.6753 35.9824 45.5259 35.9531 45.3659 35.9531C45.2059 35.9531 45.0566 35.9824 44.9179 36.0411C44.7793 36.0944 44.6593 36.1851 44.5579 36.3131C44.4619 36.4411 44.3846 36.6091 44.3259 36.8171C44.2673 37.0251 44.2379 37.2838 44.2379 37.5931C44.2379 37.8918 44.2673 38.1424 44.3259 38.3451C44.3846 38.5424 44.4619 38.7024 44.5579 38.8251C44.6593 38.9478 44.7793 39.0358 44.9179 39.0891C45.0566 39.1424 45.2059 39.1691 45.3659 39.1691C45.5259 39.1691 45.6753 39.1424 45.8139 39.0891C45.9579 39.0358 46.0806 38.9478 46.1819 38.8251C46.2886 38.7024 46.3713 38.5424 46.4299 38.3451C46.4939 38.1424 46.5259 37.8918 46.5259 37.5931ZM51.8939 35.1051C51.9633 35.0251 52.0433 34.9531 52.1339 34.8891C52.2299 34.8251 52.3633 34.7931 52.5339 34.7931H53.9739L45.3819 46.0651C45.3126 46.1504 45.2299 46.2224 45.1339 46.2811C45.0379 46.3344 44.9206 46.3611 44.7819 46.3611H43.3099L51.8939 35.1051ZM54.5819 43.6411C54.5819 44.0784 54.5073 44.4731 54.3579 44.8251C54.2139 45.1771 54.0193 45.4784 53.7739 45.7291C53.5286 45.9744 53.2433 46.1664 52.9179 46.3051C52.5926 46.4384 52.2539 46.5051 51.9019 46.5051C51.5179 46.5051 51.1633 46.4384 50.8379 46.3051C50.5126 46.1664 50.2299 45.9744 49.9899 45.7291C49.7553 45.4784 49.5713 45.1771 49.4379 44.8251C49.3046 44.4731 49.2379 44.0784 49.2379 43.6411C49.2379 43.1931 49.3046 42.7878 49.4379 42.4251C49.5713 42.0624 49.7553 41.7558 49.9899 41.5051C50.2299 41.2544 50.5126 41.0624 50.8379 40.9291C51.1633 40.7904 51.5179 40.7211 51.9019 40.7211C52.2859 40.7211 52.6406 40.7904 52.9659 40.9291C53.2966 41.0624 53.5793 41.2544 53.8139 41.5051C54.0539 41.7558 54.2406 42.0624 54.3739 42.4251C54.5126 42.7878 54.5819 43.1931 54.5819 43.6411ZM53.0539 43.6411C53.0539 43.3318 53.0246 43.0731 52.9659 42.8651C52.9073 42.6571 52.8246 42.4891 52.7179 42.3611C52.6166 42.2331 52.4939 42.1424 52.3499 42.0891C52.2113 42.0304 52.0619 42.0011 51.9019 42.0011C51.7419 42.0011 51.5926 42.0304 51.4539 42.0891C51.3153 42.1424 51.1953 42.2331 51.0939 42.3611C50.9926 42.4891 50.9126 42.6571 50.8539 42.8651C50.8006 43.0731 50.7739 43.3318 50.7739 43.6411C50.7739 43.9398 50.8006 44.1904 50.8539 44.3931C50.9126 44.5958 50.9926 44.7584 51.0939 44.8811C51.1953 45.0038 51.3153 45.0918 51.4539 45.1451C51.5926 45.1984 51.7419 45.2251 51.9019 45.2251C52.0619 45.2251 52.2113 45.1984 52.3499 45.1451C52.4939 45.0918 52.6166 45.0038 52.7179 44.8811C52.8246 44.7584 52.9073 44.5958 52.9659 44.3931C53.0246 44.1904 53.0539 43.9398 53.0539 43.6411Z" fill="#212121"/>
</svg>
