<svg width="80" height="26" viewBox="0 0 80 26" fill="none" xmlns="http://www.w3.org/2000/svg">
<rect y="0.5" width="80" height="25" rx="12.5" fill="#F79009"/>
<path d="M35.108 14.776L33.533 10.695C33.4863 10.5737 33.4373 10.4337 33.386 10.275C33.3347 10.1117 33.2857 9.939 33.239 9.757C33.141 10.135 33.0407 10.45 32.938 10.702L31.363 14.776H35.108ZM37.936 18.5H36.886C36.7647 18.5 36.6667 18.4697 36.592 18.409C36.5173 18.3483 36.4613 18.2713 36.424 18.178L35.486 15.756H30.985L30.047 18.178C30.019 18.262 29.9653 18.3367 29.886 18.402C29.8067 18.4673 29.7087 18.5 29.592 18.5H28.542L32.553 8.469H33.925L37.936 18.5ZM43.7052 12.669C43.6679 12.7203 43.6305 12.76 43.5932 12.788C43.5559 12.816 43.5045 12.83 43.4392 12.83C43.3692 12.83 43.2922 12.802 43.2082 12.746C43.1242 12.6853 43.0192 12.62 42.8932 12.55C42.7719 12.48 42.6202 12.417 42.4382 12.361C42.2609 12.3003 42.0415 12.27 41.7802 12.27C41.4302 12.27 41.1222 12.333 40.8562 12.459C40.5902 12.5803 40.3662 12.7577 40.1842 12.991C40.0069 13.2243 39.8715 13.5067 39.7782 13.838C39.6895 14.1693 39.6452 14.5403 39.6452 14.951C39.6452 15.3803 39.6942 15.763 39.7922 16.099C39.8902 16.4303 40.0279 16.7103 40.2052 16.939C40.3872 17.163 40.6042 17.3357 40.8562 17.457C41.1129 17.5737 41.3999 17.632 41.7172 17.632C42.0205 17.632 42.2702 17.597 42.4662 17.527C42.6622 17.4523 42.8232 17.3707 42.9492 17.282C43.0799 17.1933 43.1872 17.114 43.2712 17.044C43.3599 16.9693 43.4462 16.932 43.5302 16.932C43.6329 16.932 43.7122 16.9717 43.7682 17.051L44.1182 17.506C43.9642 17.6973 43.7892 17.8607 43.5932 17.996C43.3972 18.1313 43.1849 18.2457 42.9562 18.339C42.7322 18.4277 42.4965 18.493 42.2492 18.535C42.0019 18.577 41.7499 18.598 41.4932 18.598C41.0499 18.598 40.6369 18.5163 40.2542 18.353C39.8762 18.1897 39.5472 17.954 39.2672 17.646C38.9872 17.3333 38.7679 16.9507 38.6092 16.498C38.4505 16.0453 38.3712 15.5297 38.3712 14.951C38.3712 14.4237 38.4435 13.936 38.5882 13.488C38.7375 13.04 38.9522 12.655 39.2322 12.333C39.5169 12.0063 39.8645 11.752 40.2752 11.57C40.6905 11.388 41.1665 11.297 41.7032 11.297C42.2025 11.297 42.6412 11.3787 43.0192 11.542C43.4019 11.7007 43.7402 11.927 44.0342 12.221L43.7052 12.669ZM46.7718 11.409V18.5H45.5258V11.409H46.7718ZM47.0378 9.183C47.0378 9.30433 47.0121 9.41867 46.9608 9.526C46.9141 9.62867 46.8488 9.722 46.7648 9.806C46.6854 9.88533 46.5898 9.94833 46.4778 9.995C46.3704 10.0417 46.2561 10.065 46.1348 10.065C46.0134 10.065 45.8991 10.0417 45.7918 9.995C45.6891 9.94833 45.5981 9.88533 45.5188 9.806C45.4394 9.722 45.3764 9.62867 45.3298 9.526C45.2831 9.41867 45.2598 9.30433 45.2598 9.183C45.2598 9.06167 45.2831 8.94733 45.3298 8.84C45.3764 8.728 45.4394 8.63233 45.5188 8.553C45.5981 8.469 45.6891 8.40367 45.7918 8.357C45.8991 8.31033 46.0134 8.287 46.1348 8.287C46.2561 8.287 46.3704 8.31033 46.4778 8.357C46.5898 8.40367 46.6854 8.469 46.7648 8.553C46.8488 8.63233 46.9141 8.728 46.9608 8.84C47.0121 8.94733 47.0378 9.06167 47.0378 9.183ZM50.107 8.189V18.5H48.861V8.189H50.107Z" fill="white"/>
</svg>
