<svg width="24" height="24" viewBox="0 0 24 24" fill="none" xmlns="http://www.w3.org/2000/svg">
<rect width="24" height="24" rx="12" fill="#EEEEEE"/>
<path d="M16.5 16.5V15.375C16.5 14.7783 16.2629 14.206 15.841 13.784C15.419 13.3621 14.8467 13.125 14.25 13.125H9.75C9.15326 13.125 8.58097 13.3621 8.15901 13.784C7.73705 14.206 7.5 14.7783 7.5 15.375V16.5" stroke="#212121" stroke-linecap="round" stroke-linejoin="round"/>
<path d="M12 12C13.2426 12 14.25 10.9926 14.25 9.75C14.25 8.50736 13.2426 7.5 12 7.5C10.7574 7.5 9.75 8.50736 9.75 9.75C9.75 10.9926 10.7574 12 12 12Z" stroke="#212121" stroke-linecap="round" stroke-linejoin="round"/>
</svg>
