<svg width="12" height="12" viewBox="0 0 12 12" fill="none" xmlns="http://www.w3.org/2000/svg">
<path d="M5.52558 2.44884H2.39457C2.15732 2.44884 1.92978 2.54309 1.76201 2.71085C1.59425 2.87862 1.5 3.10616 1.5 3.34341V9.60542C1.5 9.84268 1.59425 10.0702 1.76201 10.238C1.92978 10.4057 2.15732 10.5 2.39457 10.5H8.65659C8.89384 10.5 9.12138 10.4057 9.28915 10.238C9.45691 10.0702 9.55116 9.84268 9.55116 9.60542V6.47442" stroke="#724CF9" stroke-linecap="round" stroke-linejoin="round"/>
<path d="M8.88023 1.77791C9.05817 1.59997 9.29951 1.5 9.55116 1.5C9.8028 1.5 10.0441 1.59997 10.2221 1.77791C10.4 1.95585 10.5 2.19719 10.5 2.44884C10.5 2.70049 10.4 2.94183 10.2221 3.11977L5.97286 7.36899L4.18372 7.81628L4.631 6.02713L8.88023 1.77791Z" stroke="#724CF9" stroke-linecap="round" stroke-linejoin="round"/>
</svg>
