<svg width="79" height="79" viewBox="0 0 79 79" fill="none" xmlns="http://www.w3.org/2000/svg">
<path opacity="0.7" d="M78.722 39.361C78.722 61.0995 61.0995 78.722 39.361 78.722C17.6225 78.722 0 61.0995 0 39.361C0 17.6225 17.6225 0 39.361 0C61.0995 0 78.722 17.6225 78.722 39.361ZM7.8722 39.361C7.8722 56.7518 21.9702 70.8498 39.361 70.8498C56.7518 70.8498 70.8498 56.7518 70.8498 39.361C70.8498 21.9702 56.7518 7.8722 39.361 7.8722C21.9702 7.8722 7.8722 21.9702 7.8722 39.361Z" fill="#E0E0E0"/>
<path d="M39.361 3.9361C39.361 1.76225 41.1278 -0.0204102 43.2908 0.196584C51.4515 1.01528 59.1896 4.36872 65.3909 9.83587C72.5805 16.1744 77.2103 24.9185 78.4116 34.4277C79.6129 43.9369 77.3032 53.5577 71.9157 61.4851C67.2689 68.3227 60.6079 73.4952 52.9071 76.3177C50.8661 77.0658 48.7114 75.7785 48.1708 73.6729C47.6302 71.5674 48.9119 69.4451 50.9336 68.6462C56.7825 66.335 61.8361 62.3114 65.4048 57.0603C69.7147 50.7184 71.5625 43.0218 70.6015 35.4144C69.6404 27.807 65.9366 20.8117 60.1849 15.7409C55.4224 11.5422 49.527 8.90189 43.2871 8.11783C41.1302 7.84682 39.361 6.10995 39.361 3.9361Z" fill="#8767FA"/>
</svg>
