<svg width="50" height="26" viewBox="0 0 50 26" fill="none" xmlns="http://www.w3.org/2000/svg">
<rect y="0.5" width="80" height="25" rx="12.5" fill="#12B76A"/>
<path d="M26.408 8.469V18.5H25.729C25.6217 18.5 25.5307 18.4813 25.456 18.444C25.386 18.4067 25.316 18.3437 25.246 18.255L19.443 10.695C19.4523 10.8117 19.4593 10.926 19.464 11.038C19.4687 11.15 19.471 11.255 19.471 11.353V18.5H18.281V8.469H18.981C19.0417 8.469 19.093 8.47367 19.135 8.483C19.177 8.48767 19.2143 8.49933 19.247 8.518C19.2797 8.532 19.3123 8.55533 19.345 8.588C19.3777 8.616 19.4127 8.65333 19.45 8.7L25.253 16.253C25.2437 16.1317 25.2343 16.015 25.225 15.903C25.2203 15.7863 25.218 15.6767 25.218 15.574V8.469H26.408ZM31.4487 11.297C31.9667 11.297 32.4333 11.3833 32.8487 11.556C33.264 11.7287 33.6187 11.9737 33.9127 12.291C34.2067 12.6083 34.4307 12.9933 34.5847 13.446C34.7433 13.894 34.8227 14.3957 34.8227 14.951C34.8227 15.511 34.7433 16.015 34.5847 16.463C34.4307 16.911 34.2067 17.2937 33.9127 17.611C33.6187 17.9283 33.264 18.1733 32.8487 18.346C32.4333 18.514 31.9667 18.598 31.4487 18.598C30.926 18.598 30.4547 18.514 30.0347 18.346C29.6193 18.1733 29.2647 17.9283 28.9707 17.611C28.6767 17.2937 28.4503 16.911 28.2917 16.463C28.1377 16.015 28.0607 15.511 28.0607 14.951C28.0607 14.3957 28.1377 13.894 28.2917 13.446C28.4503 12.9933 28.6767 12.6083 28.9707 12.291C29.2647 11.9737 29.6193 11.7287 30.0347 11.556C30.4547 11.3833 30.926 11.297 31.4487 11.297ZM31.4487 17.625C32.1487 17.625 32.6713 17.3917 33.0167 16.925C33.362 16.4537 33.5347 15.798 33.5347 14.958C33.5347 14.1133 33.362 13.4553 33.0167 12.984C32.6713 12.5127 32.1487 12.277 31.4487 12.277C31.094 12.277 30.7837 12.3377 30.5177 12.459C30.2563 12.5803 30.037 12.7553 29.8597 12.984C29.687 13.2127 29.5563 13.495 29.4677 13.831C29.3837 14.1623 29.3417 14.538 29.3417 14.958C29.3417 15.798 29.5143 16.4537 29.8597 16.925C30.2097 17.3917 30.7393 17.625 31.4487 17.625ZM37.586 12.83C37.81 12.3447 38.0853 11.9667 38.412 11.696C38.7387 11.4207 39.1377 11.283 39.609 11.283C39.7583 11.283 39.9007 11.2993 40.036 11.332C40.176 11.3647 40.2997 11.416 40.407 11.486L40.316 12.417C40.288 12.5337 40.218 12.592 40.106 12.592C40.0407 12.592 39.945 12.578 39.819 12.55C39.693 12.522 39.5507 12.508 39.392 12.508C39.168 12.508 38.9673 12.5407 38.79 12.606C38.6173 12.6713 38.461 12.7693 38.321 12.9C38.1857 13.026 38.062 13.1847 37.95 13.376C37.8427 13.5627 37.7447 13.7773 37.656 14.02V18.5H36.403V11.409H37.117C37.2523 11.409 37.3457 11.4347 37.397 11.486C37.4483 11.5373 37.4833 11.626 37.502 11.752L37.586 12.83ZM41.5026 18.5V11.409H42.2516C42.429 11.409 42.5386 11.4953 42.5806 11.668L42.6716 12.396C42.933 12.074 43.227 11.8103 43.5536 11.605C43.8803 11.3997 44.2583 11.297 44.6876 11.297C45.1636 11.297 45.5486 11.43 45.8426 11.696C46.1413 11.962 46.356 12.3213 46.4866 12.774C46.5893 12.5173 46.72 12.2957 46.8786 12.109C47.042 11.9223 47.224 11.7683 47.4246 11.647C47.6253 11.5257 47.8376 11.437 48.0616 11.381C48.2903 11.325 48.5213 11.297 48.7546 11.297C49.128 11.297 49.4593 11.3577 49.7486 11.479C50.0426 11.5957 50.29 11.7683 50.4906 11.997C50.696 12.2257 50.8523 12.508 50.9596 12.844C51.067 13.1753 51.1206 13.5557 51.1206 13.985V18.5H49.8676V13.985C49.8676 13.4297 49.7463 13.0097 49.5036 12.725C49.261 12.4357 48.911 12.291 48.4536 12.291C48.2483 12.291 48.0523 12.3283 47.8656 12.403C47.6836 12.473 47.5226 12.578 47.3826 12.718C47.2426 12.858 47.1306 13.0353 47.0466 13.25C46.9673 13.46 46.9276 13.705 46.9276 13.985V18.5H45.6746V13.985C45.6746 13.4157 45.5603 12.991 45.3316 12.711C45.103 12.431 44.7693 12.291 44.3306 12.291C44.0226 12.291 43.738 12.375 43.4766 12.543C43.2153 12.7063 42.975 12.9303 42.7556 13.215V18.5H41.5026ZM56.8573 15.308C56.2833 15.3267 55.7933 15.3733 55.3873 15.448C54.986 15.518 54.657 15.6113 54.4003 15.728C54.1483 15.8447 53.964 15.9823 53.8473 16.141C53.7353 16.2997 53.6793 16.477 53.6793 16.673C53.6793 16.8597 53.7097 17.0207 53.7703 17.156C53.831 17.2913 53.9127 17.4033 54.0153 17.492C54.1227 17.576 54.2463 17.639 54.3863 17.681C54.531 17.7183 54.685 17.737 54.8483 17.737C55.0677 17.737 55.2683 17.716 55.4503 17.674C55.6323 17.6273 55.8027 17.562 55.9613 17.478C56.1247 17.394 56.2787 17.2937 56.4233 17.177C56.5727 17.0603 56.7173 16.9273 56.8573 16.778V15.308ZM52.8323 12.41C53.2243 12.032 53.6467 11.7497 54.0993 11.563C54.552 11.3763 55.0537 11.283 55.6043 11.283C56.001 11.283 56.3533 11.3483 56.6613 11.479C56.9693 11.6097 57.2283 11.7917 57.4383 12.025C57.6483 12.2583 57.807 12.5407 57.9143 12.872C58.0217 13.2033 58.0753 13.5673 58.0753 13.964V18.5H57.5223C57.401 18.5 57.3077 18.4813 57.2423 18.444C57.177 18.402 57.1257 18.3227 57.0883 18.206L56.9483 17.534C56.7617 17.7067 56.5797 17.8607 56.4023 17.996C56.225 18.1267 56.0383 18.2387 55.8423 18.332C55.6463 18.4207 55.4363 18.4883 55.2123 18.535C54.993 18.5863 54.748 18.612 54.4773 18.612C54.202 18.612 53.943 18.5747 53.7003 18.5C53.4577 18.4207 53.2453 18.304 53.0633 18.15C52.886 17.996 52.7437 17.8023 52.6363 17.569C52.5337 17.331 52.4823 17.051 52.4823 16.729C52.4823 16.449 52.5593 16.1807 52.7133 15.924C52.8673 15.6627 53.117 15.4317 53.4623 15.231C53.8077 15.0303 54.258 14.867 54.8133 14.741C55.3687 14.6103 56.05 14.5357 56.8573 14.517V13.964C56.8573 13.4133 56.7383 12.998 56.5003 12.718C56.2623 12.4333 55.9147 12.291 55.4573 12.291C55.1493 12.291 54.8903 12.3307 54.6803 12.41C54.475 12.4847 54.2953 12.571 54.1413 12.669C53.992 12.7623 53.8613 12.8487 53.7493 12.928C53.642 13.0027 53.5347 13.04 53.4273 13.04C53.3433 13.04 53.271 13.019 53.2103 12.977C53.1497 12.9303 53.0983 12.8743 53.0563 12.809L52.8323 12.41ZM61.2613 8.189V18.5H60.0153V8.189H61.2613Z" fill="white"/>
</svg>
